<svg width="24" height="24" viewBox="0 0 24 24" fill="none" xmlns="http://www.w3.org/2000/svg">
<circle cx="12" cy="12" r="12" fill="white"/>
<path d="M14.6001 14.3244L14.2094 14.9104C14.1314 15.0274 14.0283 15.1272 13.8924 15.1631C13.4472 15.2808 12.2652 15.3339 10.4656 13.5344C8.6661 11.7348 8.71921 10.5528 8.83686 10.1076C8.87277 9.97169 8.97258 9.86856 9.08956 9.79057L9.6756 9.39988C10.1119 9.109 10.2298 8.51949 9.93894 8.08316L8.83211 6.42291C8.57821 6.04207 8.08876 5.89657 7.66805 6.07687L7.16875 6.29086C6.78946 6.45341 6.48006 6.74515 6.29551 7.11424C6.14132 7.42261 6.02182 7.74734 6.00563 8.09172C5.9546 9.17702 6.19258 11.8508 9.17088 14.8291C12.1492 17.8074 14.823 18.0454 15.9083 17.9944C16.2527 17.9782 16.5774 17.8587 16.8858 17.7045C17.2549 17.5199 17.5466 17.2105 17.7091 16.8312L17.9231 16.3319C18.1034 15.9112 17.9579 15.4218 17.5771 15.1679L15.9168 14.0611C15.4805 13.7702 14.891 13.8881 14.6001 14.3244Z" fill="#F65F19"/>
</svg>
