<svg width="117" height="33" viewBox="0 0 117 33" fill="none" xmlns="http://www.w3.org/2000/svg">
<g id="Group 1000004334">
<path id="Subtract" fill-rule="evenodd" clip-rule="evenodd" d="M73.5435 27.0498C72.0706 28.9306 70.4407 30.1259 68.9043 30.4527C68.1405 30.615 67.8572 30.6158 67.1464 30.4573C65.5309 30.097 64.793 29.0989 64.6311 27.0545L64.5709 26.2946L63.8441 27.1843C61.2444 30.3657 58.1872 31.3246 57.1124 29.2956C56.8048 28.715 56.8052 27.0822 57.1133 25.9624C57.2313 25.5334 57.354 25.0728 57.3861 24.9388C57.4182 24.8047 57.2165 25.1118 56.9382 25.6212C55.8421 27.6269 54.5161 29.2731 53.538 29.8424C51.7529 30.8812 49.6904 30.2873 48.9198 28.5126L48.6552 27.9032L47.8665 28.6899C46.9233 29.6304 46.0247 30.1436 45.0265 30.3114C44.1829 30.4531 43.6687 30.328 43.1454 29.8536C42.3907 29.1698 42.065 27.8972 42.258 26.3874C42.4065 25.2282 42.6296 24.5457 43.6262 22.2091C44.613 19.8954 44.8022 19.3507 44.825 18.7596C44.8592 17.8758 44.1696 17.6635 43.0651 18.2172C41.6458 18.9286 40.1769 21.242 39.045 24.5487C38.4539 26.2748 37.8954 28.9126 37.894 29.9835L37.8934 30.3978H33.7314L34.4598 28.7649C35.5563 26.3073 36.4529 24.1616 37.0092 22.6638C38.4083 18.896 38.3148 17.2612 36.7419 17.9855C36.2366 18.2182 34.7487 19.7594 34.0058 20.8196C32.0842 23.5618 29.7814 28.103 29.408 29.886L29.3008 30.3977H24.9727L25.3153 29.6423C25.5035 29.2267 26.1216 27.9874 26.6883 26.8883C30.7498 19.0119 31.4783 17.3005 31.5128 15.556L31.5277 14.8008L33.3013 14.8004C34.2765 14.8002 35.0748 14.8194 35.0748 14.8429C35.0748 14.9058 33.8716 18.3638 33.6312 18.9919C33.5183 19.2869 33.4799 19.4475 33.5457 19.3489C33.612 19.2503 33.8822 18.8386 34.147 18.4342C35.5007 16.3661 37.664 14.7933 39.1426 14.8022C39.627 14.8052 40.2507 15.1071 40.5012 15.4599C40.9719 16.1232 40.9739 17.4041 40.5059 18.6508C40.252 19.3273 40.2787 19.4112 40.5835 18.8945C41.021 18.1536 41.6246 17.4153 42.3876 16.6884C45.0053 14.1951 48.3606 14.0631 48.8891 16.4326C49.1139 17.4395 48.7202 18.9143 47.7638 20.6488C46.1612 23.5547 45.7747 25.7184 46.8579 25.7184C47.3259 25.7184 47.9243 25.377 48.6696 24.6851C49.3395 24.0629 49.374 24.0055 51.1472 20.5725C53.0275 16.9316 53.5362 15.8072 53.6151 15.1168L53.6624 14.7026H57.6326L57.3208 15.075C56.5037 16.0511 53.8443 21.0605 53.3691 22.5187C52.9181 23.9024 52.8936 24.9792 53.303 25.4329C53.8481 26.0372 55.2588 25.0917 56.7751 23.1057C59.0668 20.1045 60.9091 16.7185 61.0916 15.1729L61.1471 14.7025L63.4416 14.7055C65.104 14.7076 65.6877 14.7369 65.5596 14.8116C65.0149 15.1292 63.2996 17.8826 62.0947 20.3729C61.1129 22.4021 60.7313 23.5289 60.7313 24.3998C60.7313 24.9895 60.7581 25.0779 61.0154 25.3359C61.5982 25.9207 62.5939 25.5857 63.8497 24.3822C64.9181 23.3583 65.0463 23.1338 65.4383 21.5967C66.2494 18.4154 67.5715 14.914 69.2375 11.5342C70.8317 8.30008 72.1277 6.31193 73.66 4.75005C75.0298 3.35389 76.1235 2.76945 77.3525 2.77693C78.5019 2.78393 79.3781 3.38602 79.7939 4.45476C79.9615 4.88553 80.0078 5.21111 80.0104 5.97756C80.0156 7.53882 79.5496 9.22488 78.5679 11.1936C76.6861 14.9681 74.0195 17.7894 71.2875 18.897L70.4242 19.2468L70.0373 20.2161C69.5039 21.5533 69.0893 23.2398 69.0893 24.0747C69.0893 25.2138 69.4261 25.7139 70.2472 25.793C71.6922 25.9323 74.184 24.2926 74.5743 22.9459C74.9669 21.5915 75.9746 19.6401 76.9299 18.3849C79.0943 15.5404 81.636 14.2729 83.8635 14.9273C85.8724 15.5175 86.5915 17.4632 85.6604 19.7892C84.9777 21.4942 83.5946 22.5992 81.7785 22.8902C80.5925 23.0801 79.1749 22.6682 78.6965 21.9945C78.5899 21.8443 78.466 21.7214 78.4211 21.7214C78.268 21.7214 77.933 22.9278 77.933 23.4797C77.933 25.3411 79.9473 26.1803 82.4851 25.3762C83.7084 24.9885 84.6957 24.2581 86.0479 22.7398C86.2016 22.5674 89.2582 16.6325 89.3839 16.2627C89.4028 16.2074 88.8252 16.159 87.9567 16.1429L86.4978 16.116L87.3262 14.7512L90.1268 14.6537L90.3378 14.215C94.6504 5.24622 94.7456 5.03751 94.7456 4.55166V4.27149H96.7435C97.8424 4.27149 98.7227 4.3044 98.6997 4.34461C98.451 4.77996 93.7735 14.5096 93.7735 14.5916C93.7735 14.7586 99.1758 14.7478 99.2814 14.5806C99.4483 14.3162 103.66 5.46924 103.767 5.15869C103.83 4.97645 103.881 4.70235 103.881 4.54947V4.27161H105.879C106.978 4.27161 107.858 4.30452 107.835 4.34473C107.586 4.78008 102.909 14.5097 102.909 14.5918C102.909 14.6697 103.355 14.7026 104.413 14.7026H105.917L105.032 16.1649L102.179 16.1686L100.721 19.0122C98.9744 22.4196 98.7165 23.0256 98.6553 23.8665C98.5979 24.6502 98.7809 25.1449 99.2332 25.4288C99.4997 25.5962 99.6815 25.6258 100.293 25.6015C100.926 25.5763 101.137 25.5182 101.781 25.1904C103.131 24.5029 104.516 22.9883 105.14 21.5174C106.277 18.8374 108.383 16.3453 110.347 15.3566C111.913 14.5678 113.665 14.5778 114.876 15.3823C115.795 15.9931 116.245 17.1754 116.046 18.4575C115.673 20.8641 114.085 22.5254 111.807 22.8903C110.621 23.0803 109.203 22.6683 108.725 21.9946C108.618 21.8444 108.494 21.7215 108.449 21.7215C108.296 21.7215 107.961 22.9279 107.961 23.4798C107.961 25.3412 109.976 26.1804 112.513 25.3763C113.706 24.9983 115.265 23.8494 115.983 22.8181L116.136 22.5986L116.568 22.9607C116.806 23.1599 117 23.3549 117 23.3943C117 23.4338 116.697 23.9181 116.327 24.4704C113.745 28.3262 109.767 30.7867 106.899 30.3015C105.181 30.0109 104.265 28.786 104.091 26.5488L104.026 25.7098L103.297 26.6051C101.772 28.4784 99.7513 29.905 98.0636 30.3001C97.3335 30.4709 96.1592 30.3856 95.6539 30.1248C94.7914 29.6797 94.309 28.7835 94.1934 27.411L94.1341 26.7072L93.3458 27.5101C92.3095 28.5656 91.394 29.2482 90.3224 29.7634C89.2243 30.2914 88.6082 30.4337 87.6646 30.3771C85.9232 30.2727 85.0697 29.1757 85.0828 27.0581L85.0886 26.107L84.3782 26.8337C81.4148 29.8646 77.8494 31.1259 75.7098 29.9003C74.8678 29.4179 74.4229 28.6736 74.151 27.293L73.9907 26.4791L73.5435 27.0498ZM89.5201 23.8665C89.4627 24.6503 89.6457 25.1449 90.098 25.4289C90.3645 25.5962 90.5467 25.6259 91.158 25.6016C92.2384 25.5586 93.1531 25.0761 94.2589 23.9651L95.0848 23.1351L96.7858 19.7388C97.7209 17.8709 98.501 16.3026 98.5188 16.2537C98.5377 16.2016 97.4135 16.1657 95.7976 16.1668L93.044 16.1687L91.5863 19.0123C89.8392 22.4197 89.5813 23.0256 89.5201 23.8665ZM79.1505 20.6264C79.0926 20.8172 79.1409 20.8736 79.5036 21.0387C80.4235 21.4573 81.3926 21.1663 82.3932 20.1709C83.0052 19.5619 83.4725 18.7488 83.7168 17.8672C83.8648 17.3334 83.8661 17.2464 83.7303 16.9206C83.4434 16.2321 82.8096 16.353 81.6553 17.3166C80.7531 18.07 79.3727 19.8938 79.1505 20.6264ZM109.181 20.6264C109.123 20.8172 109.171 20.8736 109.534 21.0387C110.454 21.4573 111.423 21.1663 112.424 20.1709C113.036 19.5619 113.503 18.7488 113.747 17.8672C113.895 17.3334 113.896 17.2464 113.761 16.9206C113.474 16.2321 112.84 16.353 111.686 17.3166C110.783 18.07 109.403 19.8938 109.181 20.6264ZM76.7743 5.13994C75.4089 6.50948 72.8953 11.5723 71.2369 16.2932C70.9365 17.1475 70.936 17.1522 71.1529 17.0864C72.7122 16.6134 74.8811 13.9885 76.6695 10.4096C77.9435 7.86069 78.4262 5.63609 77.8415 5.01096C77.5103 4.65699 77.2206 4.69214 76.7743 5.13994Z" fill="white"/>
<path id="Subtract_2" fill-rule="evenodd" clip-rule="evenodd" d="M11.0017 28.556C9.39149 30.109 7.60667 31.2602 6.01451 31.7729C3.39316 32.6171 1.32006 31.9064 0.34758 29.8301C0.0824904 29.2641 0.037687 29.0499 0.00517748 28.1923C-0.0530186 26.6536 0.377233 25.4764 1.4051 24.3628L1.95254 23.7697L2.38639 24.2535C3.93345 25.9795 6.92998 25.853 9.73664 23.9432C11.9635 22.428 13.5885 20.4465 19.0335 12.6064C23.5608 6.08779 26.1675 3.54269 29.4691 2.4171L30.2308 2.15746L27.9142 2.09464C26.64 2.06007 24.7886 1.94466 23.7997 1.83806C21.6415 1.60534 19.8109 1.5858 18.9637 1.78613C16.5254 2.36274 14.7418 4.76515 14.7298 7.48848C14.721 9.4755 15.6477 10.7259 17.3406 11.0112L18.069 11.134L17.6059 11.6141C17.0809 12.158 16.1136 12.8149 15.3932 13.1165C13.762 13.7995 11.5823 13.6108 10.1149 12.6595C9.00758 11.9417 8.21339 10.8789 7.89905 9.69474C7.72193 9.02748 7.72874 7.66686 7.9128 6.94843C8.36192 5.19445 9.63822 3.36627 11.2789 2.12613C13.4065 0.518018 15.9423 -0.0992327 19.9605 0.0127895C22.1159 0.0729598 23.134 0.192724 27.0628 0.848522C29.5848 1.26957 32.0657 1.56449 34.5385 1.73705C35.3937 1.79681 36.1936 1.86636 36.316 1.89166C36.538 1.93751 36.5379 1.93838 36.2579 2.17472C35.2996 2.98355 32.8783 7.50533 29.7582 14.3126C27.6035 19.0139 23.9802 27.192 23.7333 27.9118C23.4155 28.8382 23.3438 29.6596 23.5398 30.1296L23.6922 30.4951H17.6543L17.8312 30.2271C18.4039 29.359 19.2419 27.9788 20.0165 26.6281C20.909 25.0721 23.5748 19.7591 24.4593 17.7733L24.6839 16.6394C24.5451 16.6055 23.4409 16.5726 22.2305 16.5662C20.5516 16.5574 20.0189 16.5836 19.9829 16.6766C19.9151 16.8517 17.0976 20.8644 15.6624 22.8296C13.832 25.3362 11.9766 27.6159 11.0017 28.556ZM21.5127 14.2934C21.5448 14.3256 22.3021 14.3805 23.1955 14.4153C24.0886 14.4502 25.0736 14.4742 25.3842 14.4687L25.9489 14.4588L28.5753 9.30853C30.0202 6.47589 31.1872 4.14352 31.1693 4.12548C31.083 4.03899 30.1021 4.30556 29.5458 4.56664C27.3677 5.58904 24.7564 8.43768 22.5514 12.1965C21.8707 13.357 21.442 14.2225 21.5127 14.2934Z" fill="white"/>
</g>
</svg>
