<svg width="24" height="25" viewBox="0 0 24 25" fill="none" xmlns="http://www.w3.org/2000/svg">
<circle cx="12" cy="12.8672" r="12" fill="white"/>
<path d="M14.6562 15.0898V13.7773H12.6562V11.7773H11.3438V13.7773H9.34375V15.0898H11.3438V17.0898H12.6562V15.0898H14.6562ZM9.9375 8.43359V9.77734H14.0625V8.43359C14.0625 7.87109 13.8542 7.39193 13.4375 6.99609C13.0417 6.57943 12.5625 6.37109 12 6.37109C11.4375 6.37109 10.9479 6.57943 10.5312 6.99609C10.1354 7.39193 9.9375 7.87109 9.9375 8.43359ZM16 9.77734C16.3542 9.77734 16.6667 9.91276 16.9375 10.1836C17.2083 10.4336 17.3438 10.7357 17.3438 11.0898V17.7773C17.3438 18.1315 17.2083 18.444 16.9375 18.7148C16.6667 18.9648 16.3542 19.0898 16 19.0898H8C7.64583 19.0898 7.33333 18.9648 7.0625 18.7148C6.79167 18.444 6.65625 18.1315 6.65625 17.7773V11.0898C6.65625 10.7357 6.79167 10.4336 7.0625 10.1836C7.33333 9.91276 7.64583 9.77734 8 9.77734H8.65625V8.43359C8.65625 7.51693 8.97917 6.73568 9.625 6.08984C10.2917 5.42318 11.0833 5.08984 12 5.08984C12.9167 5.08984 13.6979 5.42318 14.3438 6.08984C15.0104 6.73568 15.3438 7.51693 15.3438 8.43359V9.77734H16Z" fill="#F65F19"/>
</svg>
