<svg width="24" height="24" viewBox="0 0 24 24" fill="none" xmlns="http://www.w3.org/2000/svg">
<circle cx="12" cy="12" r="12" fill="white"/>
<path d="M16.7143 6H7.28571C6.94472 6 6.6177 6.13546 6.37658 6.37658C6.13546 6.6177 6 6.94472 6 7.28571V16.7143C6 17.0553 6.13546 17.3823 6.37658 17.6234C6.6177 17.8645 6.94472 18 7.28571 18H10.9621V13.9203H9.27455V12H10.9621V10.5364C10.9621 8.8717 11.9531 7.95214 13.4711 7.95214C14.198 7.95214 14.9582 8.08179 14.9582 8.08179V9.71571H14.1206C13.2954 9.71571 13.0379 10.2279 13.0379 10.7531V12H14.8803L14.5856 13.9203H13.0379V18H16.7143C17.0553 18 17.3823 17.8645 17.6234 17.6234C17.8645 17.3823 18 17.0553 18 16.7143V7.28571C18 6.94472 17.8645 6.6177 17.6234 6.37658C17.3823 6.13546 17.0553 6 16.7143 6Z" fill="#F65F19"/>
</svg>
