<svg width="24" height="25" viewBox="0 0 24 25" fill="none" xmlns="http://www.w3.org/2000/svg">
<circle cx="12" cy="12.4336" r="12" fill="white"/>
<path d="M15.6809 7H8.3191C7.04034 7 6 8.04012 6 9.31891V11.7685V16.6811C6 17.9599 7.04034 19 8.3191 19H15.6812C16.9599 19 18 17.9599 18 16.6811V11.7683V9.31867C17.9998 8.03988 16.9597 7 15.6809 7ZM16.3461 8.38287L16.6114 8.38191V8.64599V10.4159L14.5841 10.4225L14.5771 8.38869L16.3461 8.38287ZM10.2872 11.7683C10.6716 11.2365 11.2951 10.8877 12 10.8877C12.7049 10.8877 13.3284 11.2365 13.7123 11.7683C13.9623 12.1154 14.1122 12.54 14.1122 12.9999C14.1122 14.1644 13.1638 15.1118 11.9998 15.1118C10.835 15.1118 9.88761 14.1644 9.88761 12.9999C9.88785 12.54 10.0372 12.1154 10.2872 11.7683ZM16.8306 16.6809C16.8306 17.3153 16.3149 17.8306 15.6809 17.8306H8.3191C7.68493 17.8306 7.16911 17.3153 7.16911 16.6809V11.7683H8.9603C8.80563 12.1488 8.71873 12.5644 8.71873 12.9999C8.71873 14.8088 10.1904 16.2815 12 16.2815C13.8093 16.2815 15.281 14.8088 15.281 12.9999C15.281 12.5644 15.1937 12.1488 15.039 11.7683H16.8306V16.6809Z" fill="#F65F19"/>
</svg>
