<svg width="24" height="25" viewBox="0 0 24 25" fill="none" xmlns="http://www.w3.org/2000/svg">
<circle cx="12" cy="12.8677" r="12" fill="white"/>
<path fill-rule="evenodd" clip-rule="evenodd" d="M12.9745 19.1322C14.6739 17.9204 18 15.1237 18 11.796C18 8.44611 15.3137 5.73047 12 5.73047C8.68629 5.73047 6 8.44611 6 11.796C6 15.1237 9.32614 17.9204 11.0255 19.1322C11.6141 19.5519 12.3859 19.5519 12.9745 19.1322ZM12 13.7115C13.0464 13.7115 13.8947 12.854 13.8947 11.7961C13.8947 10.7382 13.0464 9.88066 12 9.88066C10.9536 9.88066 10.1053 10.7382 10.1053 11.7961C10.1053 12.854 10.9536 13.7115 12 13.7115Z" fill="#F65F19"/>
</svg>
