<svg width="24" height="25" viewBox="0 0 24 25" fill="none" xmlns="http://www.w3.org/2000/svg">
<circle cx="12" cy="12.4336" r="12" fill="white"/>
<path d="M18.7348 10.7357C18.8414 10.6549 19 10.7305 19 10.8581V16.1836C19 16.8737 18.4121 17.4336 17.6875 17.4336H6.3125C5.58789 17.4336 5 16.8737 5 16.1836V10.8607C5 10.7305 5.15586 10.6576 5.26523 10.7383C5.87773 11.1914 6.68984 11.7669 9.47891 13.6966C10.0559 14.0977 11.0293 14.9414 12 14.9362C12.9762 14.944 13.9687 14.082 14.5238 13.6966C17.3129 11.7669 18.1223 11.1888 18.7348 10.7357ZM12 13.1003C12.6344 13.1107 13.5477 12.3398 14.007 12.0221C17.6355 9.51432 17.9117 9.29557 18.7484 8.67057C18.907 8.55339 19 8.37109 19 8.17839V8.68359C19 7.99349 18.4121 7.43359 17.6875 7.43359H6.3125C5.58789 7.43359 5 7.99349 5 8.68359V8.17839C5 8.37109 5.09297 8.55078 5.25156 8.67057C6.08828 9.29297 6.36445 9.51432 9.99297 12.0221C10.4523 12.3398 11.3656 13.1107 12 13.1003Z" fill="#F65F19"/>
</svg>
