<svg width="24" height="25" viewBox="0 0 24 25" fill="none" xmlns="http://www.w3.org/2000/svg">
<circle cx="12" cy="12.3018" r="12" fill="white"/>
<path d="M12 5.09033L18 7.77783V11.7778C18 13.632 17.4271 15.3299 16.2812 16.8716C15.1354 18.3924 13.7083 19.3612 12 19.7778C10.2917 19.3612 8.86458 18.3924 7.71875 16.8716C6.57292 15.3299 6 13.632 6 11.7778V7.77783L12 5.09033ZM12 12.4341V18.4028C13.2292 18.007 14.2708 17.2674 15.125 16.1841C15.9792 15.0799 16.4896 13.8299 16.6562 12.4341H12ZM12 12.4341V6.55908L7.34375 8.62158V12.4341H12Z" fill="#F65F19"/>
</svg>
