<svg width="24" height="25" viewBox="0 0 24 25" fill="none" xmlns="http://www.w3.org/2000/svg">
<circle cx="12" cy="12.8677" r="12" fill="white"/>
<path d="M19.101 9.17027C18.6194 9.36906 18.101 9.50315 17.5572 9.56315C18.1125 9.25448 18.5383 8.76553 18.7391 8.18224C18.2197 8.46845 17.6447 8.67614 17.0322 8.78824C16.5421 8.30325 15.8435 8 15.0704 8C13.5862 8 12.3828 9.11742 12.3828 10.4959C12.3828 10.6912 12.4065 10.8816 12.4525 11.0646C10.2186 10.9604 8.23789 9.96691 6.91217 8.45685C6.68081 8.82529 6.54837 9.25398 6.54837 9.71182C6.54837 10.5776 7.0228 11.3416 7.74404 11.7891C7.30364 11.776 6.88903 11.6637 6.52656 11.4767C6.52629 11.4871 6.52629 11.4977 6.52629 11.5083C6.52629 12.7174 7.45283 13.7259 8.68254 13.9555C8.45702 14.0123 8.21953 14.043 7.97434 14.043C7.80095 14.043 7.63261 14.0274 7.46852 13.998C7.81078 14.9895 8.80327 15.7113 9.97926 15.7313C9.05937 16.4008 7.90067 16.7998 6.64118 16.7998C6.42444 16.7998 6.21036 16.788 6 16.7648C7.18981 17.4733 8.60249 17.8862 10.1202 17.8862C15.0643 17.8862 17.7676 14.0832 17.7676 10.785C17.7676 10.6769 17.7652 10.569 17.7601 10.4618C18.2851 10.1106 18.7409 9.67082 19.101 9.17027Z" fill="#F65F19"/>
</svg>
