<svg width="53" height="48" viewBox="0 0 53 48" fill="none" xmlns="http://www.w3.org/2000/svg">
<rect x="0.355469" y="0.213989" width="51.9991" height="46.7992" rx="23.3996" fill="white"/>
<path d="M17.7049 10.6138H20.721L17.6962 19.4518H12.4888L16.416 11.4269C16.5359 11.1826 16.7199 10.9771 16.9475 10.8335C17.1751 10.6899 17.4374 10.6138 17.7049 10.6138ZM12.5926 22.3978L21.2832 36.2057L17.6184 22.3978H12.5926ZM20.6056 22.3978L25.0173 39.0279C25.0955 39.3295 25.2691 39.5962 25.5111 39.7865C25.753 39.9768 26.0498 40.08 26.3552 40.08C26.6605 40.08 26.9573 39.9768 27.1993 39.7865C27.4413 39.5962 27.6149 39.3295 27.6931 39.0279L32.1163 22.3978H20.6056ZM35.1035 22.3978L31.43 36.1998L40.1178 22.3978H35.1035ZM40.2216 19.4518H35.0228L31.9952 10.6138H35.0055C35.2735 10.6133 35.5363 10.6891 35.7645 10.8327C35.9927 10.9763 36.1772 11.1821 36.2973 11.4269L40.2216 19.4518ZM31.9692 19.4518H20.7527L23.7745 10.6138H28.9359L31.9692 19.4518Z" fill="#F65F19"/>
</svg>
