<svg width="560" height="560" viewBox="0 0 560 560" fill="none" xmlns="http://www.w3.org/2000/svg">
<path d="M260.512 511.865H144V422H260.512V511.865Z" fill="#ECECEC"/>
<path d="M274.152 512.926C273.991 512.926 273.86 492.896 273.86 468.191C273.86 443.478 273.991 423.452 274.152 423.452C274.313 423.452 274.443 443.478 274.443 468.191C274.443 492.896 274.313 512.926 274.152 512.926Z" fill="#E1E1E1"/>
<path d="M293.465 503.204H284.533V493.107H293.465V503.204Z" fill="#FAFAFA"/>
<path d="M222.375 443.102H235.61V423.927H222.375V443.102Z" fill="#E1E1E1"/>
<path d="M222.375 513.293H235.61V494.117H222.375V513.293Z" fill="#E1E1E1"/>
<path d="M514.75 514.475H367.841V401.165H514.75V514.475Z" fill="#ECECEC"/>
<path d="M477.943 513.674C477.781 513.674 477.651 488.418 477.651 457.268C477.651 426.11 477.781 400.857 477.943 400.857C478.104 400.857 478.234 426.11 478.234 457.268C478.234 488.418 478.104 513.674 477.943 513.674Z" fill="#E1E1E1"/>
<path d="M502.294 501.414H491.031V488.683H502.294V501.414Z" fill="#FAFAFA"/>
<path d="M412.658 425.635H429.345V401.457H412.658V425.635Z" fill="#E1E1E1"/>
<path d="M412.658 514.137H429.345V489.959H412.658V514.137Z" fill="#E1E1E1"/>
<path d="M91.1278 404.498C97.0736 401.43 104.075 401.031 110.677 402.123C114.223 402.708 117.92 403.769 120.333 406.433C122.746 409.097 123.203 413.785 120.432 416.075C118.784 417.436 116.484 417.643 114.344 417.619C109.176 417.558 103.442 416.648 99.3142 419.759C96.9583 421.532 95.3911 424.48 92.5743 425.353C89.8201 426.207 86.7102 424.58 85.2504 422.093C83.7894 419.608 83.7402 416.5 84.4214 413.697C84.4214 413.697 85.1385 407.589 91.1278 404.498Z" fill="#ECECEC"/>
<path d="M77.5048 378.2C81.1405 383.393 88.2071 381.674 91.4837 378.503C94.7603 375.334 96.1452 370.741 97.4059 366.36C100.285 356.35 103.189 345.851 101.048 335.659C100.407 332.61 99.2685 329.571 97.1273 327.311C94.9851 325.049 91.6929 323.704 88.6825 324.5C85.1196 325.442 82.9046 328.931 81.3038 332.251C76.5998 342.008 74.1085 352.826 74.0716 363.659C74.0548 368.717 74.6511 374.024 77.5048 378.2Z" fill="#ECECEC"/>
<path d="M67.5204 385.652C71.4682 380.967 72.2177 374.133 70.4603 368.263C68.704 362.394 64.7361 357.401 60.1618 353.325C54.799 348.545 48.4964 344.826 41.7206 342.443C39.0537 341.506 36.2403 340.767 33.4268 341.034C30.6123 341.302 27.7787 342.742 26.4665 345.246C24.5256 348.946 26.3859 353.437 28.3984 357.1C31.9446 363.553 35.9986 369.727 40.5114 375.545C44.1425 380.225 48.3006 384.842 53.8347 386.957C59.3665 389.074 65.1153 388.824 68.0473 384.987" fill="#ECECEC"/>
<path d="M77.2599 456.533C77.3281 456.538 77.4389 455.696 77.5888 454.174C77.7566 452.456 77.9658 450.3 78.2152 447.735C78.5162 445.024 78.9122 441.8 79.6639 438.288C80.4145 434.786 81.5891 430.991 83.0971 427.141C84.6588 423.313 86.5639 419.835 88.79 417.053C91.0005 414.259 93.5712 412.236 95.9875 411.069C98.396 409.88 100.555 409.397 102.048 409.183C103.553 409.028 104.397 408.91 104.398 408.842C104.398 408.776 103.553 408.765 102.007 408.806C100.474 408.908 98.2248 409.296 95.6866 410.451C93.1405 411.58 90.4132 413.633 88.0953 416.486C85.7573 419.325 83.784 422.881 82.1943 426.775C80.6595 430.693 79.5017 434.528 78.7858 438.106C78.0709 441.679 77.7432 444.939 77.5295 447.671C77.3248 450.405 77.2476 452.62 77.2107 454.15C77.176 455.681 77.1939 456.53 77.2599 456.533Z" fill="#E1E1E1"/>
<path d="M77.7044 451.579C77.738 451.577 77.7581 451.2 77.7682 450.484C77.7659 449.66 77.7626 448.625 77.7592 447.353C77.7514 444.635 77.7525 440.702 77.899 435.847C78.1396 426.137 78.9752 415.685 80.5905 400.95C82.1198 387.095 84.1725 370.97 86.3383 360.487C86.8025 358.102 87.2712 355.956 87.7109 354.079C88.1315 352.196 88.4895 350.572 88.8362 349.258C89.1327 348.022 89.3754 347.014 89.5678 346.215C89.7245 345.516 89.7916 345.143 89.7591 345.136C89.7267 345.126 89.5969 345.479 89.3788 346.163C89.1394 346.95 88.8396 347.941 88.4693 349.162C88.0666 350.463 87.6538 352.076 87.1817 353.952C86.6895 355.822 86.1738 357.962 85.6648 360.343C83.5215 369.844 81.2528 383.12 79.6218 397.89C78.0042 412.655 77.2748 426.099 77.2099 435.835C77.1518 440.702 77.2558 444.643 77.38 447.362C77.4583 448.634 77.5209 449.669 77.5713 450.491C77.6261 451.205 77.6708 451.58 77.7044 451.579Z" fill="#E1E1E1"/>
<path d="M77.7686 425.649C77.8357 425.645 77.8245 424.484 77.7451 422.378C77.6254 420.276 77.3356 417.237 76.7439 413.515C76.1163 409.804 75.2393 405.396 73.8622 400.606C73.2648 398.416 71.862 393.169 68.4635 385.33C63.9855 374.707 57.9011 366.021 52.6086 360.643C51.3669 359.214 49.9854 358.184 48.879 357.175C48.3074 356.691 47.8006 356.21 47.286 355.827C46.7681 355.47 46.2859 355.138 45.8396 354.829C44.0967 353.638 43.1212 353.009 43.0854 353.066C42.9288 353.28 46.9873 355.667 52.1108 361.118C57.2142 366.558 63.1286 375.183 67.5697 385.717C70.0464 391.43 71.7736 396.526 72.9986 400.852C74.4148 405.595 75.3545 409.959 76.066 413.635C76.7405 417.318 77.1321 420.325 77.3681 422.409C77.5616 424.494 77.7015 425.651 77.7686 425.649Z" fill="#E1E1E1"/>
<path d="M50.9697 467.45L53.5684 503.047H99.2984L101.897 467.45H50.9697Z" fill="#ECECEC"/>
<path d="M46.5527 467.45H107.353V453.42H46.5527V467.45Z" fill="#ECECEC"/>
<path d="M46.5527 501.685V505.575H49.4098H106.349V501.685H46.5527Z" fill="#E1E1E1"/>
<path d="M52.2102 511.988L49.4102 505.144H104.171L100.903 511.988H52.2102Z" fill="#E1E1E1"/>
<path d="M101.048 479.085C101.058 479.092 100.985 479.203 100.835 479.411C100.653 479.652 100.428 479.949 100.152 480.317C99.5019 481.148 98.6103 482.29 97.4872 483.726L97.3686 483.878L97.2545 483.72C95.5799 481.404 93.3425 478.31 90.7092 474.668H91.0862C89.1386 477.424 86.9706 480.495 84.6427 483.792L84.4402 484.078L84.2142 483.809C81.8359 480.978 79.254 477.907 76.5726 474.717L77.0133 474.711C76.8802 474.877 76.737 475.057 76.5927 475.239C74.2223 478.211 71.929 481.086 69.7588 483.805L69.5317 484.092L69.3214 483.794C67.0013 480.511 64.8333 477.445 62.8745 474.673L63.2493 474.689C60.0723 478.31 57.3774 481.38 55.3101 483.736L55.1691 483.897L55.0617 483.716C54.0147 481.957 53.1801 480.554 52.575 479.539C52.3154 479.086 52.1051 478.72 51.9373 478.427C51.7964 478.173 51.7304 478.037 51.7427 478.031C51.755 478.023 51.8456 478.143 52.0089 478.383C52.1946 478.664 52.4273 479.016 52.7148 479.453C53.3491 480.452 54.2261 481.827 55.3235 483.554L55.0763 483.535C57.1111 481.148 59.7624 478.041 62.8879 474.377L63.0848 474.147L63.2638 474.395C65.2405 477.155 67.4275 480.209 69.7677 483.476L69.3303 483.464C71.495 480.74 73.7826 477.86 76.1475 474.884C76.2918 474.704 76.435 474.524 76.5681 474.356L76.7851 474.083L77.0089 474.351C79.6825 477.547 82.2577 480.626 84.6292 483.461L84.2008 483.478C86.5522 480.198 88.7426 477.143 90.7092 474.4L90.9005 474.133L91.0862 474.4C93.6636 478.082 95.8539 481.209 97.4928 483.55L97.2601 483.542C98.428 482.143 99.3554 481.03 100.031 480.221C100.332 479.872 100.577 479.589 100.774 479.361C100.945 479.17 101.038 479.076 101.048 479.085Z" fill="#F5F5F5"/>
<path d="M102.532 467.215C102.532 467.373 91.0735 467.5 76.9425 467.5C62.8048 467.5 51.3496 467.373 51.3496 467.215C51.3496 467.057 62.8048 466.931 76.9425 466.931C91.0735 466.931 102.532 467.057 102.532 467.215Z" fill="#F5F5F5"/>
<path d="M423.576 110.211L414.202 110.262L413.951 63.6144L423.326 63.564L423.576 110.211Z" fill="#E1E1E1"/>
<path d="M357.15 89.438L332.874 89.5677L332.735 63.816L357.013 63.6851L357.15 89.438Z" fill="#ECECEC"/>
<path d="M381.312 89.3085L357.036 89.4383L356.897 63.6866L381.175 63.5557L381.312 89.3085Z" fill="#F5F5F5"/>
<path d="M332.773 70.9274C348.907 71.0606 365.08 70.9666 381.213 70.7048C381.545 70.6992 381.543 70.1902 381.209 70.1891C365.076 70.0996 348.902 70.179 332.771 70.4844C332.487 70.4912 332.488 70.9252 332.773 70.9274Z" fill="#E1E1E1"/>
<path d="M361.819 109.995L317.712 110.231L317.601 89.245L361.706 89.0089L361.819 109.995Z" fill="#ECECEC"/>
<path d="M405.718 109.76L361.61 109.996L361.498 89.0095L405.605 88.7734L405.718 109.76Z" fill="#F5F5F5"/>
<path d="M317.631 95.0815C346.931 95.4126 376.336 95.1162 405.637 94.6463C405.968 94.6407 405.967 94.1329 405.633 94.1306C376.331 93.9762 346.924 93.993 317.629 94.6385C317.344 94.6452 317.346 95.0781 317.631 95.0815Z" fill="#E1E1E1"/>
<path d="M472.02 117.75H301.136V110.231H472.02V117.75Z" fill="#E1E1E1"/>
<path d="M336.051 139.501H329.114V113.846H336.051V139.501Z" fill="#E1E1E1"/>
<path d="M439.607 139.501H432.67V113.846H439.607V139.501Z" fill="#E1E1E1"/>
<path d="M432.818 110.326L423.443 110.376L423.099 46.2193L432.473 46.1689L432.818 110.326Z" fill="#ECECEC"/>
<path d="M447.402 110.103L432.836 110.181L432.557 58.1892L447.124 58.1109L447.402 110.103Z" fill="#F5F5F5"/>
<path d="M447.023 68.1282C447.023 68.268 443.762 68.381 439.74 68.381C435.717 68.381 432.457 68.268 432.457 68.1282C432.457 67.9883 435.717 67.8753 439.74 67.8753C443.762 67.8753 447.023 67.9883 447.023 68.1282Z" fill="#E1E1E1"/>
<path d="M447.023 65.9437C447.023 66.0835 443.762 66.1965 439.74 66.1965C435.717 66.1965 432.457 66.0835 432.457 65.9437C432.457 65.8038 435.717 65.6908 439.74 65.6908C443.762 65.6908 447.023 65.8038 447.023 65.9437Z" fill="#E1E1E1"/>
<path d="M447.023 102.281C447.023 102.421 443.762 102.534 439.74 102.534C435.717 102.534 432.457 102.421 432.457 102.281C432.457 102.141 435.717 102.028 439.74 102.028C443.762 102.028 447.023 102.141 447.023 102.281Z" fill="#E1E1E1"/>
<path d="M447.023 100.097C447.023 100.237 443.762 100.35 439.74 100.35C435.717 100.35 432.457 100.237 432.457 100.097C432.457 99.9571 435.717 99.8441 439.74 99.8441C443.762 99.8441 447.023 99.9571 447.023 100.097Z" fill="#E1E1E1"/>
<path d="M439.975 95.3312C439.836 95.3312 439.723 90.0857 439.723 83.6165C439.723 77.145 439.836 71.9007 439.975 71.9007C440.114 71.9007 440.228 77.145 440.228 83.6165C440.228 90.0857 440.114 95.3312 439.975 95.3312Z" fill="#E1E1E1"/>
<path d="M463.039 110.123H447.182V70.8798H463.039V110.123Z" fill="#ECECEC"/>
<path d="M430.344 57.1222C430.344 58.6112 429.138 59.8171 427.649 59.8171C426.161 59.8171 424.955 58.6112 424.955 57.1222C424.955 55.6344 426.161 54.4285 427.649 54.4285C429.138 54.4285 430.344 55.6344 430.344 57.1222Z" fill="#E1E1E1"/>
<path d="M428.482 102.699H426.816V64.5325H428.482V102.699Z" fill="#E1E1E1"/>
<mask id="mask0_305_8051" style="mask-type:luminance" maskUnits="userSpaceOnUse" x="0" y="0" width="560" height="560">
<path d="M0 0H559.333V559.333H0V0Z" fill="white"/>
</mask>
<g mask="url(#mask0_305_8051)">
<path d="M519.797 513.86C519.797 514.023 412.279 514.152 279.68 514.152C147.033 514.152 39.5381 514.023 39.5381 513.86C39.5381 513.699 147.033 513.57 279.68 513.57C412.279 513.57 519.797 513.699 519.797 513.86Z" fill="#1A2E35"/>
</g>
<mask id="mask1_305_8051" style="mask-type:luminance" maskUnits="userSpaceOnUse" x="0" y="0" width="560" height="560">
<path d="M0 0H559.333V559.333H0V0Z" fill="white"/>
</mask>
<g mask="url(#mask1_305_8051)">
<path d="M485.248 484.584C485.237 484.578 485.304 484.42 485.444 484.112C485.599 483.777 485.809 483.331 486.077 482.761C486.616 481.567 487.316 479.758 487.939 477.351C489.172 472.54 489.603 465.19 487.782 456.458C486.935 452.087 485.571 447.398 483.907 442.426C482.266 437.446 480.362 432.162 478.805 426.449C477.266 420.751 476.052 414.564 476.286 408.08C476.522 401.583 478.446 395.097 480.562 388.642C482.673 382.175 484.855 375.855 485.51 369.497C486.25 363.151 484.892 356.922 482 351.816C479.2 346.658 475.677 342.246 473.041 337.675C470.363 333.121 468.688 328.436 467.656 324.08C465.654 315.297 466.356 307.896 467.315 303.019C468.353 298.116 469.513 295.581 469.513 295.581C469.523 295.585 469.479 295.752 469.382 296.074C469.272 296.428 469.126 296.9 468.938 297.502C468.55 298.753 468.047 300.625 467.571 303.068C466.696 307.935 466.076 315.285 468.118 323.973C469.17 328.279 470.853 332.902 473.521 337.394C476.151 341.91 479.689 346.305 482.545 351.524C485.497 356.685 486.916 363.118 486.164 369.564C485.505 376.029 483.306 382.39 481.199 388.849C479.084 395.3 477.183 401.718 476.943 408.105C476.704 414.491 477.888 420.616 479.402 426.288C480.933 431.973 482.815 437.258 484.435 442.251C486.079 447.238 487.426 451.966 488.247 456.368C490.02 465.165 489.513 472.589 488.193 477.416C487.524 479.832 486.78 481.636 486.2 482.818C485.907 483.377 485.676 483.815 485.504 484.143C485.344 484.441 485.258 484.591 485.248 484.584Z" fill="#1A2E35"/>
<path d="M476.622 342.184C476.622 342.184 471.268 325.064 480.872 315.04C481.209 314.689 481.802 314.854 481.89 315.334C482.402 318.161 483.043 326.774 476.622 342.184Z" fill="#F65F19"/>
<path d="M479.83 320.745C479.92 320.763 479.767 321.968 479.47 323.903C479.117 326.079 478.704 328.633 478.248 331.454C477.801 334.277 477.395 336.829 477.05 339.004C476.756 340.938 476.581 342.137 476.483 342.13C476.396 342.123 476.404 340.905 476.579 338.947C476.756 336.99 477.101 334.3 477.586 331.347C478.069 328.392 478.584 325.733 479.003 323.816C479.422 321.9 479.739 320.726 479.83 320.745Z" fill="#1A2E35"/>
<path d="M482.912 382.561C482.912 382.561 486.186 364.926 499.362 360.556C499.824 360.403 500.272 360.828 500.124 361.292C499.255 364.032 495.795 371.943 482.912 382.561Z" fill="#F65F19"/>
<path d="M495.773 365.112C495.843 365.17 495.145 366.162 493.977 367.735C492.648 369.492 491.089 371.557 489.365 373.837C487.65 376.123 486.097 378.189 484.775 379.952C483.612 381.523 482.896 382.5 482.813 382.448C482.739 382.402 483.316 381.329 484.386 379.68C485.456 378.035 487.02 375.816 488.83 373.432C490.639 371.049 492.338 368.938 493.606 367.44C494.87 365.941 495.701 365.052 495.773 365.112Z" fill="#1A2E35"/>
<path d="M479.35 426.804C479.35 426.804 477.362 408.977 488.7 400.97C489.099 400.689 489.649 400.965 489.643 401.453C489.607 404.326 488.593 412.902 479.35 426.804Z" fill="#F65F19"/>
<path d="M486.589 406.371C486.675 406.406 486.294 407.559 485.633 409.403C484.873 411.471 483.98 413.899 482.993 416.582C482.014 419.266 481.13 421.696 480.376 423.765C479.719 425.607 479.318 426.751 479.223 426.724C479.139 426.702 479.381 425.507 479.925 423.619C480.472 421.733 481.324 419.158 482.365 416.35C483.4 413.542 484.415 411.029 485.191 409.229C485.967 407.427 486.504 406.337 486.589 406.371Z" fill="#1A2E35"/>
<path d="M489.275 471.306C489.275 471.306 487.924 453.421 499.544 445.824C499.952 445.557 500.491 445.853 500.469 446.341C500.33 449.209 499.009 457.744 489.275 471.306Z" fill="#F65F19"/>
<path d="M497.242 451.145C497.326 451.183 496.904 452.322 496.177 454.141C495.344 456.182 494.364 458.577 493.282 461.221C492.209 463.869 491.237 466.265 490.41 468.307C489.688 470.123 489.246 471.252 489.152 471.222C489.069 471.196 489.352 470.012 489.964 468.143C490.578 466.277 491.522 463.735 492.661 460.966C493.799 458.198 494.902 455.724 495.742 453.952C496.582 452.179 497.157 451.107 497.242 451.145Z" fill="#1A2E35"/>
<path d="M468.928 327.143C468.928 327.143 453.028 318.84 452.717 304.962C452.706 304.474 453.243 304.172 453.643 304.449C456.006 306.083 462.555 311.712 468.928 327.143Z" fill="#F65F19"/>
<path d="M456.019 309.728C456.095 309.676 456.839 310.636 458 312.215C459.291 314 460.807 316.096 462.482 318.413C464.163 320.723 465.685 322.814 466.98 324.595C468.142 326.168 468.866 327.139 468.791 327.203C468.725 327.26 467.869 326.393 466.607 324.888C465.348 323.38 463.687 321.236 461.938 318.805C460.189 316.377 458.669 314.133 457.609 312.484C456.548 310.833 455.942 309.78 456.019 309.728Z" fill="#1A2E35"/>
<path d="M486 363.909C486 363.909 469.626 356.586 468.472 342.753C468.432 342.267 468.95 341.932 469.367 342.184C471.825 343.672 478.703 348.893 486 363.909Z" fill="#F65F19"/>
<path d="M472.059 347.311C472.132 347.254 472.933 348.167 474.187 349.672C475.584 351.377 477.225 353.377 479.037 355.586C480.855 357.791 482.501 359.784 483.903 361.484C485.158 362.984 485.94 363.909 485.869 363.977C485.807 364.038 484.9 363.226 483.549 361.799C482.199 360.372 480.411 358.331 478.517 356.011C476.625 353.694 474.972 351.547 473.813 349.964C472.654 348.382 471.985 347.367 472.059 347.311Z" fill="#1A2E35"/>
<path d="M476.58 404.919C476.58 404.919 465.337 390.943 470.611 378.102C470.795 377.651 471.409 377.588 471.664 378.003C473.176 380.447 476.921 388.228 476.58 404.919Z" fill="#F65F19"/>
<path d="M471.726 383.792C471.816 383.776 472.115 384.953 472.545 386.864C473.012 389.018 473.563 391.546 474.17 394.339C474.783 397.129 475.34 399.654 475.814 401.805C476.249 403.711 476.524 404.892 476.429 404.921C476.347 404.945 475.908 403.809 475.355 401.923C474.804 400.038 474.141 397.408 473.513 394.48C472.882 391.554 472.39 388.89 472.078 386.954C471.767 385.017 471.634 383.809 471.726 383.792Z" fill="#1A2E35"/>
<path d="M487.716 453.18C487.716 453.18 471.467 445.584 470.544 431.732C470.513 431.247 471.037 430.921 471.448 431.18C473.882 432.708 480.67 438.045 487.716 453.18Z" fill="#F65F19"/>
<path d="M474.054 436.35C474.128 436.295 474.915 437.22 476.142 438.747C477.511 440.476 479.118 442.502 480.892 444.742C482.674 446.976 484.285 448.999 485.657 450.721C486.888 452.241 487.654 453.179 487.583 453.246C487.519 453.306 486.625 452.478 485.298 451.029C483.973 449.579 482.22 447.51 480.366 445.159C478.511 442.809 476.896 440.635 475.764 439.033C474.632 437.432 473.98 436.406 474.054 436.35Z" fill="#1A2E35"/>
<path d="M520.082 382.657C520.098 382.659 520.105 382.793 520.103 383.053C520.096 383.364 520.086 383.741 520.074 384.199C520.026 385.277 519.963 386.733 519.882 388.548C519.673 392.373 519.381 397.704 519.032 404.08L519.031 404.096L519.026 404.118C517.867 410.607 514.56 417.803 510.12 424.786C506.864 429.932 503.45 434.609 500.504 438.961C497.541 443.299 495.039 447.317 493.296 450.877C491.539 454.433 490.519 457.49 489.923 459.624C489.637 460.695 489.423 461.53 489.299 462.103C489.165 462.671 489.084 462.97 489.062 462.965C489.038 462.961 489.075 462.657 489.166 462.076C489.247 461.494 489.422 460.646 489.669 459.558C490.191 457.391 491.153 454.283 492.868 450.671C494.572 447.053 497.05 442.982 499.992 438.614C502.916 434.234 506.313 429.549 509.553 424.43C513.97 417.479 517.259 410.395 518.461 404.008L518.457 404.044C518.904 397.673 519.279 392.347 519.546 388.527C519.694 386.715 519.811 385.263 519.899 384.188C519.945 383.732 519.982 383.358 520.013 383.048C520.044 382.789 520.067 382.656 520.082 382.657Z" fill="#1A2E35"/>
<path d="M510.407 423.452C510.407 423.452 517.288 406.886 508.631 396.035C508.328 395.654 507.722 395.767 507.591 396.236C506.825 399.004 505.406 407.523 510.407 423.452Z" fill="#F65F19"/>
<path d="M509.153 401.81C509.246 401.8 509.456 402.998 509.699 404.945C509.942 406.89 510.214 409.586 510.429 412.572C510.644 415.558 510.745 418.269 510.743 420.232C510.739 422.198 510.637 423.412 510.55 423.411C510.453 423.409 510.387 422.2 510.269 420.247C510.121 418.05 509.949 415.47 509.759 412.619C509.56 409.767 509.38 407.188 509.225 404.988C509.105 403.034 509.061 401.82 509.153 401.81Z" fill="#1A2E35"/>
<mask id="mask2_305_8051" style="mask-type:luminance" maskUnits="userSpaceOnUse" x="506" y="395" width="7" height="29">
<path d="M506.803 395.805H512.999V423.452H506.803V395.805Z" fill="white"/>
</mask>
<g mask="url(#mask2_305_8051)">
<g opacity="0.300003">
<path d="M510.407 423.452C510.407 423.452 517.288 406.886 508.631 396.035C508.328 395.654 507.722 395.767 507.591 396.235C506.825 399.004 505.406 407.523 510.407 423.452Z" fill="black"/>
</g>
</g>
<path d="M489.091 463.37C489.091 463.37 494.609 446.301 485.1 436.187C484.765 435.832 484.171 435.993 484.08 436.471C483.539 439.294 482.818 447.899 489.091 463.37Z" fill="#F65F19"/>
<path d="M486.089 441.901C486.18 441.883 486.486 443.06 486.887 444.981C487.287 446.9 487.777 449.565 488.233 452.523C488.689 455.482 489.009 458.176 489.168 460.134C489.323 462.093 489.32 463.311 489.234 463.317C489.135 463.322 488.971 462.122 488.696 460.187C488.371 458.007 487.99 455.45 487.569 452.624C487.139 449.8 486.752 447.241 486.419 445.062C486.14 443.124 485.998 441.919 486.089 441.901Z" fill="#1A2E35"/>
<mask id="mask3_305_8051" style="mask-type:luminance" maskUnits="userSpaceOnUse" x="483" y="435" width="8" height="29">
<path d="M483.738 435.995H490.683V463.37H483.738V435.995Z" fill="white"/>
</mask>
<g mask="url(#mask3_305_8051)">
<g opacity="0.300003">
<path d="M489.091 463.37C489.091 463.37 494.609 446.301 485.1 436.187C484.765 435.831 484.171 435.993 484.08 436.471C483.539 439.294 482.818 447.899 489.091 463.37Z" fill="black"/>
</g>
</g>
<path d="M519.171 403.209C519.171 403.209 533.866 392.921 532.383 379.119C532.331 378.634 531.759 378.403 531.398 378.73C529.265 380.656 523.498 387.083 519.171 403.209Z" fill="#F65F19"/>
<mask id="mask4_305_8051" style="mask-type:luminance" maskUnits="userSpaceOnUse" x="519" y="378" width="14" height="26">
<path d="M519.173 378.578H532.489V403.208H519.173V378.578Z" fill="white"/>
</mask>
<g mask="url(#mask4_305_8051)">
<g opacity="0.300003">
<path d="M519.173 403.209C519.173 403.209 533.868 392.921 532.385 379.119C532.333 378.634 531.761 378.403 531.4 378.73C529.267 380.656 523.5 387.083 519.173 403.209Z" fill="black"/>
</g>
</g>
<path d="M529.723 384.272C529.806 384.313 529.342 385.438 528.503 387.21C527.664 388.983 526.448 391.405 525.026 394.037C523.606 396.674 522.236 399.015 521.181 400.672C520.124 402.328 519.387 403.298 519.314 403.25C519.232 403.197 519.824 402.141 520.774 400.43C521.829 398.497 523.067 396.227 524.435 393.718C525.797 391.206 527.031 388.931 528.08 386.994C529.026 385.278 529.641 384.232 529.723 384.272Z" fill="#1A2E35"/>
<path d="M495.018 446.449C495.018 446.449 512.742 443.685 517.488 430.64C517.655 430.182 517.243 429.724 516.775 429.858C514.013 430.646 506.004 433.878 495.018 446.449Z" fill="#F65F19"/>
<mask id="mask5_305_8051" style="mask-type:luminance" maskUnits="userSpaceOnUse" x="495" y="429" width="23" height="18">
<path d="M495.019 429.834H517.527V446.449H495.019V429.834Z" fill="white"/>
</mask>
<g mask="url(#mask5_305_8051)">
<g opacity="0.300003">
<path d="M495.019 446.449C495.019 446.449 512.743 443.685 517.489 430.64C517.656 430.182 517.244 429.724 516.775 429.858C514.014 430.647 506.005 433.878 495.019 446.449Z" fill="black"/>
</g>
</g>
<path d="M512.832 434.097C512.889 434.169 511.976 434.974 510.441 436.196C508.909 437.419 506.749 439.057 504.314 440.794C501.878 442.536 499.617 444.035 497.94 445.057C496.261 446.079 495.172 446.624 495.129 446.55C495.078 446.466 496.075 445.778 497.68 444.66C499.479 443.389 501.59 441.898 503.924 440.248C506.253 438.592 508.363 437.093 510.157 435.816C511.763 434.693 512.776 434.024 512.832 434.097Z" fill="#1A2E35"/>
<path d="M478.11 479.065L472.939 513.86H505.158L500.981 479.065H478.11Z" fill="#375A64"/>
<path d="M502.271 489.846C502.271 490.032 496.453 490.182 489.279 490.182C482.103 490.182 476.286 490.032 476.286 489.846C476.286 489.662 482.103 489.511 489.279 489.511C496.453 489.511 502.271 489.662 502.271 489.846Z" fill="#1A2E35"/>
<path d="M502.908 492.616C502.908 492.8 496.901 492.951 489.492 492.951C482.079 492.951 476.073 492.8 476.073 492.616C476.073 492.43 482.079 492.28 489.492 492.28C496.901 492.28 502.908 492.43 502.908 492.616Z" fill="#1A2E35"/>
<path d="M323.689 141.557C323.689 141.557 323.392 141.563 322.815 141.546C322.237 141.522 321.38 141.481 320.256 141.56C318.023 141.685 314.669 142.106 310.721 143.758C306.818 145.407 302.25 148.321 298.615 153.193C296.813 155.617 295.306 158.533 294.39 161.839C293.505 165.149 293.205 168.82 293.627 172.6C294.105 176.367 295.257 180.266 297.369 183.845C298.416 185.63 299.658 187.365 301.176 188.894C302.642 190.468 304.372 191.861 306.323 192.921C308.269 193.974 310.499 194.638 312.78 194.546C315.043 194.473 317.376 193.675 319.033 192.024C320.701 190.385 321.524 187.978 321.526 185.576C321.538 183.156 320.699 180.749 319.257 178.722C316.352 174.64 311.656 171.893 306.66 170.413C301.616 168.944 296.074 168.906 290.77 170.194C288.128 170.882 285.546 171.891 283.117 173.236C280.691 174.588 278.484 176.352 276.548 178.39C276.09 178.922 275.567 179.404 275.159 179.981L273.896 181.686C273.159 182.897 272.403 184.105 271.837 185.419C270.651 188.013 269.819 190.796 269.405 193.663C268.654 199.393 269.348 205.295 271.663 210.445C273.899 215.603 277.713 220.031 282.464 222.699C284.836 224.024 287.455 224.879 290.113 225.023C292.766 225.188 295.411 224.504 297.661 223.211C299.908 221.921 301.786 219.983 302.77 217.648C303.748 215.313 303.73 212.65 302.885 210.333C302.054 207.991 300.497 205.99 298.68 204.385C296.851 202.781 294.719 201.58 292.492 200.79C287.979 199.316 283.172 199.396 278.873 200.554C274.563 201.727 270.72 203.947 267.703 206.782C264.691 209.635 262.576 213.134 261.3 216.707C258.718 223.909 259.375 231.22 261.592 236.806C263.874 242.439 267.5 246.45 270.809 249.102C274.149 251.772 277.191 253.214 279.277 254.034C280.328 254.434 281.139 254.718 281.695 254.875C282.247 255.047 282.526 255.15 282.526 255.15C282.526 255.15 282.236 255.085 281.679 254.932C281.115 254.795 280.297 254.527 279.234 254.143C277.127 253.355 274.053 251.94 270.668 249.278C267.313 246.635 263.629 242.614 261.29 236.927C259.016 231.283 258.318 223.887 260.911 216.569C262.195 212.938 264.332 209.371 267.394 206.456C270.458 203.562 274.359 201.293 278.748 200.087C283.125 198.899 288.02 198.8 292.658 200.305C294.952 201.114 297.14 202.342 299.025 203.99C300.898 205.639 302.515 207.702 303.391 210.152C304.279 212.577 304.307 215.392 303.275 217.858C302.239 220.325 300.274 222.35 297.94 223.693C295.604 225.04 292.844 225.756 290.083 225.587C287.327 225.44 284.621 224.556 282.187 223.198C277.311 220.464 273.418 215.941 271.133 210.678C268.769 205.424 268.061 199.418 268.827 193.58C269.249 190.66 270.097 187.823 271.309 185.175C271.887 183.834 272.659 182.599 273.414 181.363L274.705 179.62C275.123 179.031 275.656 178.537 276.126 177.994C278.103 175.911 280.361 174.113 282.834 172.735C285.311 171.364 287.941 170.339 290.631 169.64C296.032 168.332 301.67 168.375 306.815 169.88C311.913 171.4 316.688 174.186 319.698 178.415C321.188 180.513 322.07 183.044 322.05 185.577C322.047 188.091 321.179 190.638 319.393 192.389C317.62 194.146 315.159 194.972 312.798 195.044C310.411 195.135 308.093 194.435 306.094 193.345C304.089 192.25 302.328 190.822 300.839 189.217C299.298 187.655 298.039 185.888 296.98 184.07C294.845 180.428 293.69 176.469 293.218 172.649C292.804 168.814 293.122 165.093 294.032 161.74C294.975 158.393 296.518 155.442 298.355 152.998C302.057 148.087 306.689 145.179 310.635 143.549C314.626 141.915 318.006 141.531 320.25 141.442C321.38 141.383 322.24 141.442 322.819 141.487C323.395 141.524 323.689 141.557 323.689 141.557Z" fill="#1A2E35"/>
<path d="M361.051 374.467H204.201V253.492H361.051V374.467Z" fill="#F65F19"/>
<path d="M204.201 253.492L233.171 280.514H387.36L361.051 253.492H204.201Z" fill="#F65F19"/>
<path d="M204.201 253.492C207.03 253.487 271.813 253.369 361.051 253.206H361.17L361.255 253.293C369.658 261.921 378.378 270.873 387.299 280.033C387.391 280.127 387.482 280.221 387.57 280.31L388.053 280.806L387.36 280.805C324.136 280.758 268.021 280.715 233.171 280.69H233.103L233.053 280.643C214.925 263.583 205.153 254.387 204.201 253.492C205.16 254.378 215.013 263.488 233.292 280.385L233.171 280.338C268.021 280.313 324.136 280.27 387.36 280.223L387.152 280.716C387.065 280.627 386.973 280.533 386.882 280.439C377.964 271.277 369.246 262.322 360.845 253.692L361.051 253.778C271.813 253.616 207.029 253.497 204.201 253.492Z" fill="#1A2E35"/>
<path d="M251.312 309.276C249.653 309.279 248.137 310.769 248.109 312.429C248.08 314.089 249.542 315.632 251.201 315.691C252.86 315.75 254.429 314.318 254.52 312.661C254.612 311.004 253.209 309.406 251.553 309.284" fill="#1A2E35"/>
<path d="M288.347 309.276C286.688 309.279 285.172 310.769 285.144 312.429C285.115 314.089 286.577 315.632 288.236 315.691C289.895 315.75 291.464 314.318 291.555 312.661C291.647 311.004 290.244 309.406 288.588 309.284" fill="#1A2E35"/>
<path d="M288.585 338.234C288.417 338.304 288.17 335.207 285.481 331.279C284.158 329.333 282.18 327.268 279.555 325.594C276.945 323.921 273.63 322.716 270.05 322.586C266.465 322.519 263.089 323.54 260.391 325.069C257.677 326.597 255.589 328.55 254.162 330.422C251.263 334.195 250.845 337.273 250.682 337.194C250.663 337.189 250.694 337.008 250.773 336.666C250.868 336.328 250.941 335.804 251.183 335.18C251.588 333.904 252.411 332.114 253.835 330.173C255.249 328.23 257.356 326.195 260.127 324.602C262.88 323.008 266.357 321.934 270.065 322.003C273.771 322.138 277.182 323.4 279.845 325.144C282.524 326.885 284.515 329.031 285.821 331.049C287.136 333.066 287.86 334.898 288.193 336.195C288.402 336.832 288.446 337.358 288.522 337.699C288.583 338.047 288.605 338.231 288.585 338.234Z" fill="#1A2E35"/>
<mask id="mask6_305_8051" style="mask-type:luminance" maskUnits="userSpaceOnUse" x="204" y="254" width="158" height="36">
<path d="M204.557 254.823H361.049V289.993H204.557V254.823Z" fill="white"/>
</mask>
<g mask="url(#mask6_305_8051)">
<g opacity="0.5">
<path d="M204.556 254.823L232.294 289.993H361.049V280.513H233.171L204.556 254.823Z" fill="black"/>
</g>
</g>
<path d="M330.121 374.19C329.959 374.19 329.829 353.148 329.829 327.197C329.829 301.237 329.959 280.198 330.121 280.198C330.282 280.198 330.412 301.237 330.412 327.197C330.412 353.148 330.282 374.19 330.121 374.19Z" fill="#1A2E35"/>
<path d="M354.75 362.394H340.925V346.765H354.75V362.394Z" fill="#F5F5F5"/>
<path d="M204.202 253.492L172 280.514H204.202V253.492Z" fill="#F65F19"/>
<mask id="mask7_305_8051" style="mask-type:luminance" maskUnits="userSpaceOnUse" x="172" y="253" width="33" height="28">
<path d="M172.001 253.492H204.203V280.513H172.001V253.492Z" fill="white"/>
</mask>
<g mask="url(#mask7_305_8051)">
<g opacity="0.399994">
<path d="M204.203 253.492L172.001 280.514H204.203V253.492Z" fill="black"/>
</g>
</g>
<path d="M365.679 513.56H185.34V374.467H365.679V513.56Z" fill="#F65F19"/>
<mask id="mask8_305_8051" style="mask-type:luminance" maskUnits="userSpaceOnUse" x="185" y="374" width="181" height="140">
<path d="M185.336 374.468H365.675V513.56H185.336V374.468Z" fill="white"/>
</mask>
<g mask="url(#mask8_305_8051)">
<g opacity="0.300003">
<path d="M365.675 513.56H185.336V374.467H365.675V513.56Z" fill="#9D9D9D"/>
</g>
</g>
<path d="M320.494 512.578C320.333 512.578 320.203 481.574 320.203 443.338C320.203 405.089 320.333 374.091 320.494 374.091C320.656 374.091 320.786 405.089 320.786 443.338C320.786 481.574 320.656 512.578 320.494 512.578Z" fill="#1A2E35"/>
<path d="M350.388 497.529H336.563V481.9H350.388V497.529Z" fill="#F5F5F5"/>
<path d="M240.357 404.505H260.841V374.826H240.357V404.505Z" fill="#1A2E35"/>
<path d="M240.357 513.146H260.841V483.467H240.357V513.146Z" fill="#1A2E35"/>
<path d="M364.106 374.467C364.106 374.477 363.949 374.487 363.644 374.496C363.312 374.504 362.863 374.514 362.29 374.527C361.068 374.539 359.319 374.557 357.081 374.581C352.527 374.603 345.991 374.634 337.926 374.673C321.724 374.694 299.393 374.723 274.727 374.757C250.053 374.723 227.718 374.694 211.518 374.673C203.453 374.634 196.916 374.603 192.363 374.581C190.126 374.557 188.377 374.539 187.156 374.527C186.582 374.514 186.133 374.504 185.801 374.496C185.495 374.487 185.339 374.477 185.339 374.467C185.339 374.457 185.495 374.447 185.801 374.438C186.133 374.43 186.582 374.421 187.156 374.408C188.377 374.397 190.126 374.378 192.363 374.353C196.916 374.332 203.453 374.301 211.518 374.26C227.718 374.239 250.053 374.209 274.727 374.174C299.393 374.209 321.724 374.239 337.926 374.26C345.991 374.301 352.527 374.332 357.081 374.353C359.319 374.378 361.068 374.397 362.29 374.408C362.863 374.421 363.312 374.43 363.644 374.438C363.949 374.447 364.106 374.457 364.106 374.467Z" fill="#1A2E35"/>
<path d="M250.331 232.832C248.227 232.315 238.097 229.825 218.501 225.011L218.735 224.975C211.736 229.437 202.253 233.04 191.259 233.211C185.792 233.191 180.006 232.534 174.235 230.725C168.467 228.93 162.795 225.949 157.642 221.931C147.33 213.954 139.301 201.171 137.567 186.456C136.682 179.147 137.273 171.463 139.549 164.106C141.866 156.768 145.861 149.814 151.244 143.961C153.972 140.87 157.185 138.302 160.461 135.93C162.184 134.868 163.879 133.764 165.652 132.83L168.36 131.526L169.709 130.877L171.112 130.366C178.528 127.488 186.421 126.376 193.997 126.881C201.58 127.366 208.844 129.49 215.197 132.833C221.562 136.168 227.018 140.697 231.301 145.84C235.596 150.986 238.717 156.737 240.702 162.541C242.688 168.355 243.591 174.202 243.644 179.727C243.709 190.826 240.24 200.348 236.019 207.299L236.021 207.011C244.873 222.982 249.344 231.051 250.331 232.832C249.31 231.071 244.683 223.089 235.524 207.294L235.442 207.151L235.527 207.006C239.644 200.09 242.998 190.672 242.873 179.731C242.791 174.286 241.872 168.534 239.897 162.823C237.919 157.12 234.829 151.475 230.594 146.434C226.367 141.394 220.996 136.96 214.742 133.7C208.498 130.434 201.37 128.367 193.93 127.9C186.496 127.417 178.76 128.518 171.493 131.341L170.118 131.845L168.797 132.482L166.144 133.76C164.405 134.677 162.744 135.762 161.056 136.803C157.846 139.129 154.695 141.644 152.022 144.677C146.746 150.415 142.826 157.229 140.55 164.418C138.316 171.626 137.727 179.163 138.584 186.333C140.264 200.763 148.109 213.327 158.216 221.196C163.268 225.16 168.833 228.11 174.497 229.9C180.169 231.702 185.859 232.375 191.248 232.424C202.08 232.31 211.457 228.823 218.414 224.465L218.527 224.397L218.65 224.429C238.155 229.602 248.24 232.277 250.331 232.832Z" fill="#1A2E35"/>
<path d="M186.038 156.371L187.723 182.958C187.859 185.133 189.596 186.862 191.772 186.993C194.065 187.129 196.063 185.444 196.316 183.16L199.267 156.438C199.49 154.414 197.891 152.654 195.855 152.681L189.369 152.772C187.434 152.799 185.917 154.44 186.038 156.371Z" fill="#F65F19"/>
<path d="M198.817 201.947C197.687 205.349 194.015 207.191 190.614 206.061C187.212 204.932 185.37 201.26 186.499 197.858C187.629 194.457 191.301 192.615 194.703 193.744C198.104 194.874 199.946 198.546 198.817 201.947Z" fill="#F65F19"/>
</g>
</svg>
