<svg width="616" height="464" viewBox="0 0 616 464" fill="none" xmlns="http://www.w3.org/2000/svg">
<path d="M105.527 438.614C105.527 438.614 28.8421 384.007 6.76664 291.055C-15.3088 198.106 18.3856 85.4034 82.2886 28.471C146.192 -28.46 261.217 9.8815 312.342 57.5184L363.463 105.155C363.463 105.155 412.261 131.878 476.166 129.554C540.07 127.231 597 214.372 612.104 282.923C627.209 351.473 591.191 442.099 591.191 442.099L105.527 438.614Z" fill="#F65F19" fill-opacity="0.1"/>
<mask id="mask0_8_1979" style="mask-type:luminance" maskUnits="userSpaceOnUse" x="158" y="177" width="359" height="276">
<path d="M158.972 177.328H516.415V452.557H158.972V177.328Z" fill="white"/>
</mask>
<g mask="url(#mask0_8_1979)">
<path d="M182.267 437.453C178.943 433.967 130.18 336.37 184.484 246.904C238.787 157.439 375.099 167.897 429.401 202.753C483.705 237.61 510.302 282.923 515.844 330.559C521.385 378.197 484.812 452.557 484.812 452.557L182.267 437.453Z" fill="#F65F19" fill-opacity="0.1"/>
</g>
<path d="M164.153 421.767V317.199C164.153 317.199 162.991 289.022 177.805 280.889C192.618 272.756 255.069 277.114 255.069 277.114V421.767H164.153Z" fill="#0084FF"/>
<path d="M274.58 179.225C274.58 179.225 270.805 210.886 269.352 213.5L267.9 216.115L260.638 221.052C260.638 221.052 274.58 240.804 291.718 244C308.856 247.195 307.403 237.029 307.403 237.029L304.789 231.51L308.275 201.3C308.275 201.3 277.194 187.067 274.58 179.225Z" fill="#FFD6B0"/>
<path d="M251.633 223.667L262.961 218.729C262.961 218.729 270.222 230.639 287.07 237.61C303.917 244.58 304.207 240.514 305.079 237.61C305.95 234.705 304.789 231.509 304.789 231.509L306.035 221.339L312.771 223.584L336.16 412.762L276.032 415.668L251.633 223.667Z" fill="white"/>
<path d="M307.112 221.537C307.112 221.537 311.178 230.928 314.955 253.005C318.731 275.08 322.217 312.261 323.089 337.822C323.96 363.384 324.541 421.768 324.541 421.768H400.353C401.224 421.768 406.453 393.011 406.453 393.011C406.453 393.011 373.34 364.641 371.598 359.994C370.435 356.896 371.017 299.479 366.078 273.047C361.139 246.614 354.751 241.289 341.388 234.704C327.579 227.899 307.112 221.537 307.112 221.537Z" fill="#F65F19"/>
<path d="M346.617 388.484C346.229 388.484 345.915 388.17 345.915 387.782C345.915 385.706 345.545 356.199 345.189 327.664C344.832 299.125 344.463 269.615 344.463 267.528C344.463 267.139 344.776 266.826 345.165 266.826C345.552 266.826 345.867 267.139 345.867 267.528C345.867 269.605 346.236 299.111 346.591 327.646C346.949 356.185 347.318 385.696 347.318 387.782C347.318 388.17 347.004 388.484 346.617 388.484Z" fill="white"/>
<path d="M195.571 381.392L194.99 421.768H283.294C283.294 421.768 287.069 387.492 285.617 384.297C284.165 381.101 195.571 381.392 195.571 381.392Z" fill="#F65F19"/>
<mask id="mask1_8_1979" style="mask-type:luminance" maskUnits="userSpaceOnUse" x="277" y="182" width="32" height="38">
<path d="M277.01 182.65H308.275V219.265H277.01V182.65Z" fill="white"/>
</mask>
<g mask="url(#mask1_8_1979)">
<path d="M293.848 212.629C297.446 215.53 302.369 217.857 306.201 219.266L308.275 201.301C308.275 201.301 284.929 190.606 277.008 182.65C278.663 191.69 282.734 203.669 293.848 212.629Z" fill="#25282B" fill-opacity="0.2"/>
</g>
<path d="M335.579 120.26C335.579 120.26 341.679 130.718 342.84 143.498C344.003 156.278 342.84 189.102 332.384 203.044C321.926 216.987 300.141 212.919 290.266 204.496C281.202 196.766 272.256 188.23 269.933 171.383C267.609 154.535 274.87 122.583 295.494 115.903C316.118 109.222 335.579 120.26 335.579 120.26Z" fill="#FFD6B0"/>
<path d="M361.782 403.506C361.782 403.506 360.759 403.506 359.199 403.464C358.834 403.45 358.427 403.464 358.006 403.45C356.503 403.408 354.678 403.366 352.839 403.31C352.432 403.296 352.011 403.282 351.604 403.268C349.779 403.226 348.22 403.45 346.76 403.366H346.719C346.409 403.352 345.96 403.394 345.595 403.408C345.412 403.422 345.244 403.436 345.132 403.422C344.289 403.268 344.121 403.071 343.21 402.664C342.029 402.13 326.066 398.564 313.08 398.649C300.107 398.705 288.469 399.589 286.573 398.003C284.664 396.388 283.513 380.089 294.59 379.022L308.208 384.188C308.208 384.188 339.305 380.496 350.705 388.905C362.133 397.315 361.782 403.506 361.782 403.506Z" fill="#FFD6B0"/>
<path d="M346.719 403.367C346.409 403.351 345.961 403.395 345.594 403.407C345.315 402.959 344.724 402.145 344.403 401.808C340.893 398.228 332.413 395.91 329.337 395.166C329.058 395.096 328.874 394.815 328.945 394.536C329.001 394.255 329.296 394.086 329.591 394.143C334.068 395.222 343.574 397.989 346.27 402.523C346.353 402.649 346.577 403.086 346.719 403.367Z" fill="#25282B"/>
<path d="M352.842 403.309C352.435 403.299 352.014 403.288 351.607 403.265C347.776 396.275 341.504 394.27 333.756 391.777L333.297 391.625C333.033 391.534 332.87 391.235 332.963 390.957C333.053 390.693 333.338 390.53 333.63 390.623L334.076 390.773C342.269 393.402 348.861 395.515 352.842 403.309Z" fill="#25282B"/>
<path d="M359.2 403.464C358.835 403.454 358.427 403.458 358.005 403.448C355.681 398.561 347.989 390.383 337.812 388.477C337.519 388.428 337.328 388.157 337.377 387.863C337.44 387.583 337.711 387.394 337.992 387.444C348.475 389.412 356.932 397.974 359.2 403.464Z" fill="#25282B"/>
<path d="M276.903 157.005C276.903 157.005 283.294 153.954 287.796 145.386C292.297 136.817 291.718 129.12 291.718 129.12C291.718 129.12 299.851 127.813 312.051 131.443C324.25 135.074 338.773 140.011 350.972 133.041C363.174 126.069 363.174 114.886 357.218 110.238C350.549 105.034 337.322 108.205 337.322 108.205C337.322 108.205 342.404 103.268 339.645 100.363C336.885 97.458 326.864 101.235 326.864 101.235C326.864 101.235 314.665 91.5039 291.571 92.665C268.48 93.8274 257.442 109.947 256.135 127.957C254.828 145.967 261.363 163.975 261.363 163.975L276.903 157.005Z" fill="#25282B"/>
<path d="M268.77 181.839C268.77 181.839 269.932 186.342 276.612 191.57C283.293 196.798 292.975 200.623 292.975 200.623L293.75 197.233C293.75 197.233 283.728 192.877 279.081 188.084C274.433 183.292 273.853 180.677 273.853 180.677L268.77 181.839Z" fill="#DEE2EC"/>
<path d="M294.913 194.727C300.29 194.477 303.29 198.728 303.665 201.479C304.04 204.23 301.456 207.313 295.412 204.605C287.906 201.24 289.537 194.977 294.913 194.727Z" fill="#25282B"/>
<path d="M272.983 148.581C272.983 148.581 275.304 131.888 286.49 120.55C307.84 98.911 325.993 100.217 325.993 100.217C325.993 100.217 325.848 97.1674 319.021 94.8438C312.613 92.6621 309.727 93.8274 309.727 93.8274C309.727 93.8274 292.154 95.2791 277.341 111.691C262.526 128.103 260.929 149.016 260.929 149.016L272.983 148.581Z" fill="#DEE2EC"/>
<path d="M271.384 146.547C257.398 144.177 249.599 155.117 249.018 166.155C248.437 177.192 256.457 185.584 267.172 184.744C291.281 182.856 288.522 149.452 271.384 146.547Z" fill="white"/>
<path d="M264.42 174.017C260.729 174.017 257.607 172.162 255.824 168.894C253.913 165.394 254.073 161.085 256.232 157.918C256.396 157.679 256.723 157.616 256.964 157.779C257.204 157.943 257.267 158.271 257.103 158.512C255.164 161.355 255.025 165.233 256.749 168.39C258.383 171.385 261.269 173.082 264.688 172.96C267.883 172.876 270.592 171.413 272.314 168.844C274.28 165.912 274.732 161.862 273.465 158.529C272.209 155.221 268.765 152.966 265.631 153.376C265.349 153.414 265.078 153.212 265.04 152.924C265.002 152.637 265.205 152.371 265.492 152.333C269.157 151.845 273.005 154.348 274.451 158.154C275.834 161.797 275.338 166.224 273.189 169.429C271.271 172.29 268.262 173.917 264.716 174.013C264.618 174.016 264.518 174.017 264.42 174.017Z" fill="#7C90B6"/>
<path d="M254.246 219.601C254.246 219.601 211.838 230.057 197.025 246.904C182.21 263.752 175.24 346.827 174.949 362.221C174.659 377.616 185.406 384.007 191.796 388.363C198.186 392.721 226.361 400.562 249.018 401.726C271.675 402.887 293.17 401.726 293.17 401.726C293.17 401.726 293.097 396.787 296.582 389.525C299.815 382.79 303.916 381.392 303.916 381.392L284.456 374.421C284.456 374.421 281.047 313.358 275.742 283.796C269.642 249.809 254.246 219.601 254.246 219.601Z" fill="#F65F19"/>
<path d="M324.541 364.665C324.446 364.665 324.349 364.645 324.257 364.605C323.902 364.447 323.742 364.033 323.899 363.679C327.873 354.714 331.99 337.114 334.308 324.767L334.499 323.768C335.201 320.136 336.074 315.619 334.332 312.502C333.443 310.911 331.436 307.46 329.505 304.143C327.502 300.698 325.611 297.445 325.086 296.474C324.062 294.578 327.283 289.512 331.945 282.564C333.205 280.686 334.293 279.064 334.927 277.966C336.59 275.091 335.483 272.457 334.203 269.407L333.766 268.356C332.605 265.506 331.286 262.651 330.011 259.889C329.489 258.761 328.966 257.632 328.452 256.496C327.771 254.995 327.086 253.468 326.393 251.922C322.289 242.773 318.044 233.31 312.609 224.17C312.41 223.838 312.521 223.407 312.853 223.209C313.186 223.012 313.617 223.12 313.815 223.453C319.292 232.663 323.553 242.162 327.673 251.348C328.367 252.892 329.05 254.417 329.73 255.918C330.244 257.049 330.765 258.175 331.284 259.301C332.567 262.077 333.893 264.948 335.066 267.827L335.497 268.865C336.803 271.974 338.154 275.191 336.143 278.668C335.485 279.808 334.385 281.448 333.111 283.345C330.68 286.968 325.622 294.51 326.321 295.806C326.835 296.758 328.722 300.001 330.718 303.437C332.653 306.763 334.666 310.222 335.558 311.815C337.551 315.381 336.622 320.179 335.878 324.035L335.687 325.025C334.843 329.522 330.369 352.545 325.183 364.247C325.066 364.511 324.809 364.665 324.541 364.665Z" fill="white"/>
<path d="M283.149 367.134C282.969 367.134 282.788 367.065 282.651 366.928C279.35 363.601 263.434 336.04 262.249 330.857C261.599 328.019 263.229 320.823 264.802 313.862C266.022 308.469 267.285 302.893 266.927 301.384C266.389 299.128 262.32 295.802 258.384 292.587C253.628 288.703 248.712 284.685 247.759 281.067C246.676 276.955 247.603 251.211 248.215 234.177C248.434 228.052 248.608 223.214 248.607 221.489C248.607 221.101 248.921 220.787 249.309 220.787C249.696 220.787 250.01 221.1 250.01 221.487C250.012 223.239 249.838 228.088 249.617 234.228C249.045 250.15 248.087 276.797 249.116 280.711C249.953 283.887 254.903 287.931 259.272 291.5C263.578 295.018 267.645 298.341 268.291 301.061C268.726 302.885 267.543 308.116 266.173 314.171C264.704 320.661 263.039 328.016 263.616 330.545C264.778 335.626 280.406 362.671 283.647 365.937C283.92 366.213 283.918 366.657 283.643 366.929C283.507 367.065 283.327 367.134 283.149 367.134Z" fill="white"/>
<path d="M226.072 355.08C226.04 355.08 226.006 355.077 225.974 355.073C225.589 355.018 225.323 354.663 225.376 354.28C225.893 350.628 233.95 277.904 234.32 272.335C234.346 271.946 234.68 271.643 235.067 271.681C235.453 271.706 235.747 272.041 235.722 272.428C235.349 278.007 227.282 350.821 226.767 354.476C226.717 354.826 226.416 355.08 226.072 355.08Z" fill="white"/>
<path d="M283.874 374.831C283.787 374.831 283.697 374.814 283.61 374.781C281.826 374.056 273.936 371.396 263.95 368.028C243.79 361.23 216.183 351.92 210.933 349.191C210.589 349.013 210.455 348.59 210.634 348.245C210.812 347.899 211.235 347.763 211.58 347.947C216.734 350.624 245.418 360.296 264.397 366.697C274.408 370.073 282.314 372.739 284.138 373.478C284.498 373.625 284.67 374.034 284.524 374.393C284.415 374.665 284.151 374.831 283.874 374.831Z" fill="white"/>
<path d="M274.181 403.789C256.44 403.789 222.046 400.591 195.919 391.35C195.554 391.22 195.362 390.82 195.492 390.453C195.62 390.088 196.026 389.896 196.386 390.025C229.393 401.701 275.566 403.695 284.156 401.766C284.535 401.685 284.91 401.92 284.996 402.298C285.08 402.676 284.843 403.052 284.464 403.136C282.605 403.553 279.009 403.789 274.181 403.789Z" fill="white"/>
<path d="M71.1247 229.395C76.6324 234.24 83.6085 237.345 88.4409 242.946C90.3418 245.151 92.0504 247.496 93.8165 249.807C95.1011 251.489 98.531 254.28 99.0869 256.393C99.3326 257.325 99.2807 256.063 99.035 255.129C99.0251 255.09 99.0041 255.052 98.9929 255.012C98.5113 250.732 98.1645 246.434 98.0143 242.129C97.8655 237.835 98.1322 233.522 97.8627 229.235C97.4836 223.187 95.5953 217.328 90.6507 213.539C88.2345 211.687 85.129 210.558 82.9066 208.503C80.7978 206.551 81.6444 204.316 82.8841 202.14C84.0437 200.105 85.4505 198.103 85.9026 195.758C86.4164 193.093 85.4154 190.346 84.0634 188.076C81.1867 183.248 74.8072 177.862 68.7661 178.585C63.7274 179.187 63.1574 184.998 63.229 189.049C63.2992 192.984 63.6881 196.909 63.726 200.849C63.7653 204.895 63.0774 208.864 63.0198 212.893C62.9215 219.744 66.0874 224.965 71.1247 229.395Z" fill="#445555"/>
<path d="M122.297 292.266C123.831 288.61 125.59 285.19 127.753 281.864C130.721 277.301 134.013 272.855 136.005 267.745C138.041 262.528 137.742 256.949 137.943 251.455C138.09 247.417 139.289 243.391 138.966 239.343C138.811 237.402 137.692 234.261 135.18 234.582C133.226 234.832 132.065 237.256 131.314 238.801C130.002 241.5 129.094 244.379 128.12 247.208C127.741 248.316 127.378 249.443 126.897 250.512C126.619 251.133 125.729 252.65 124.891 252.443C123.464 252.091 124.759 246.263 124.971 245.231C126.038 240.049 127.642 235.231 127.864 229.898C128.187 222.165 127.586 212.959 120.023 208.732C118.045 207.626 115.542 206.967 113.663 208.621C111.809 210.252 111.285 213.078 111.01 215.405C110.166 222.547 111.847 229.309 114.135 236.029C116.025 241.577 118.277 247.302 118.441 253.235C118.599 258.948 115.629 264.008 114.233 269.403C112.011 278.001 112.47 282.559 112.46 285.343C112.445 288.832 112.572 292.283 112.827 295.76C113.062 298.959 113.339 302.155 113.729 305.338C113.809 305.982 113.882 306.654 113.968 307.327C112.739 304.368 112.31 300.98 111.293 298.008C109.485 292.724 107.385 287.55 105.651 282.239C104.218 277.852 102.863 273.435 100.97 269.218C99.1943 265.261 97.0505 261.078 93.7386 258.174C91.7366 256.419 89.3106 255.393 86.6333 255.414C84.9205 255.427 83.3818 256.021 81.7476 256.452C79.7343 256.984 78.1507 256.8 76.4955 255.528C71.0749 251.361 69.4266 243.891 65.4128 238.615C62.421 234.679 55.3185 227.973 50.0973 232.263C47.3273 234.539 46.5635 238.939 46.7082 242.31C46.8907 246.541 48.7396 250.41 50.941 253.947C53.2828 257.708 56.3069 261.076 58.4577 264.944C59.7311 267.228 59.929 269.418 59.7268 271.996C59.5373 274.422 59.3253 276.774 60.1522 279.115C62.6372 286.149 70.3968 285.166 76.4323 285.35C80.6539 285.478 85.1844 286.107 89.1941 287.457C93.827 289.019 96.8413 292.033 98.4979 296.617C99.6955 299.933 100.337 303.7 102.595 306.516C103.657 307.841 105.061 308.82 106.607 309.504C108.96 310.544 116.136 310.997 116.189 310.342C116.366 308.149 117.408 305.832 118.058 303.752C119.28 299.846 120.715 296.038 122.297 292.266Z" fill="#445555"/>
<path d="M155.614 290.942C154.991 286.921 155.11 282.489 153.206 278.798C153.07 278.533 152.709 278.465 152.464 278.603C151.1 279.36 151.043 281.562 150.932 282.913C150.747 285.155 150.884 287.401 150.609 289.635C150.125 293.56 149.218 297.607 147.804 301.307C146.203 305.492 143.294 307.867 139.067 309.172C136.352 310.012 133.689 310.743 131.423 312.544C129.393 314.158 127.983 316.383 126.939 318.727C124.117 325.055 122.773 332.128 121.465 338.886C120.584 343.439 119.867 348.011 118.761 352.517C117.656 357.02 116.471 361.501 115.836 366.1C115.73 366.332 115.616 366.562 115.518 366.797C115.228 367.486 116.304 367.857 116.676 367.285C121.038 360.57 126.352 354.543 133.602 350.845C136.876 349.176 141.225 348.828 143.956 346.204C146.033 344.207 146.318 341.162 146.008 338.447C145.601 334.88 143.891 331.943 142.109 328.903C141.132 327.234 139.977 325.444 140.371 323.415C140.743 321.5 142.336 320.093 143.915 319.111C146.929 317.239 150.453 316.398 152.921 313.701C155.214 311.197 156.484 308.079 156.739 304.705C157.077 300.207 156.302 295.383 155.614 290.942Z" fill="#445555"/>
<path d="M96.1356 314.124C92.286 309.166 87.6404 304.889 82.4135 301.417C79.6239 299.566 73.0437 295.91 71.7155 301.375C70.9364 304.578 74.0713 307.728 76.1337 309.736C79.2336 312.751 82.8193 315.356 85.4348 318.833C82.1959 319.865 78.8124 320.066 75.9989 322.305C72.6674 324.957 71.1736 330.076 74.4757 333.323C76.086 334.905 78.22 335.877 80.2248 336.848C82.8305 338.109 85.4839 339.252 88.1542 340.368C93.9216 342.777 99.762 345.22 104.68 349.168C109.692 353.189 114.405 359.988 114.802 366.549C114.842 367.175 114.603 366.605 114.976 366.319C115.181 366.502 115.869 366.173 115.865 365.807C115.763 356.071 114.013 346.801 110.035 337.885C106.346 329.617 101.695 321.287 96.1356 314.124Z" fill="#445555"/>
<path d="M83.4107 224.085C85.5348 228.492 87.7545 232.798 90.1117 237.097C92.3818 241.234 94.3026 245.599 96 250.013C97.6548 255.774 100.055 259.953 102.265 265.34C104.562 270.939 106.616 276.643 108.261 282.468C111.476 293.838 113.865 305.54 115.045 317.299C115.646 323.28 115.919 329.296 115.754 335.305C115.627 340 115.097 344.645 114.655 349.316C114.196 354.177 113.866 359.095 114.272 363.972C114.611 368.049 115.26 372.895 118.425 375.803C119.044 376.374 119.92 375.664 119.56 374.927C115.802 367.216 116.011 358.811 116.731 350.451C117.127 345.834 117.678 341.242 117.834 336.609C118.031 330.714 117.8 324.808 117.245 318.936C116.154 307.396 113.853 295.992 110.869 284.8C109.338 279.06 107.443 273.433 105.261 267.909C103.074 262.372 100.619 258.077 98.5 252.513C94 242.513 89.3227 233.031 84.1492 223.653C83.8796 223.165 83.1748 223.595 83.4107 224.085Z" fill="#365691"/>
<path fill-rule="evenodd" clip-rule="evenodd" d="M86.7485 230.672C84.3913 226.373 82.1717 222.067 80.0475 217.66C79.8117 217.17 80.5164 216.74 80.786 217.227C82.1271 219.659 83.5133 222.059 84.8978 224.457C88.854 231.308 92.7966 238.136 95.6368 245.588C96.7067 248.398 97.8809 251.162 99.0628 253.923L97.4744 254.618C95.9465 250.868 94.4397 247.118 92.982 243.328C91.3151 238.993 89.0999 234.957 86.8709 230.895C86.8301 230.82 86.7893 230.746 86.7485 230.672Z" fill="white"/>
<path d="M115.219 305.772C115.827 298.445 116.476 291.389 118.947 284.399C120.098 281.139 121.493 277.969 122.605 274.696C123.525 271.991 124.899 268.282 124.192 265.406C124.112 265.086 123.644 265.102 123.557 265.406C123.084 267.049 123.136 268.85 122.795 270.534C122.464 272.172 122.021 273.784 121.512 275.376C120.428 278.762 119.011 282.007 117.784 285.34C115.413 291.778 114.196 298.91 114.715 305.772C114.739 306.097 115.191 306.097 115.219 305.772Z" fill="white"/>
<path d="M72.7582 263.663C75.6671 270.69 84.4094 271.095 90.7777 272.669C95.3264 273.792 98.6819 276.826 101.094 280.766C103.732 285.073 105.518 290.133 106.985 294.94C107.002 294.995 107.082 294.973 107.069 294.917C105.287 286.496 102.736 276.354 94.0545 272.436C87.0966 269.297 77.9303 270.873 73.4798 263.358C73.2608 262.99 72.5827 263.237 72.7582 263.663Z" fill="white"/>
<path d="M110.62 304.659C110.966 305.127 111.283 305.616 111.641 306.074C111.818 306.301 111.997 306.515 112.22 306.697C112.449 306.884 112.717 307.116 113.031 307.11C113.161 307.107 113.252 306.963 113.182 306.846C113.038 306.612 112.778 306.47 112.575 306.291C112.368 306.107 112.154 305.926 111.952 305.737C111.546 305.352 111.174 304.933 110.775 304.54C110.699 304.464 110.552 304.568 110.62 304.659Z" fill="#365691"/>
<path d="M92.4339 326.951C97.4502 331.07 102.08 335.941 105.757 341.281C107.515 343.833 109.137 346.534 110.609 349.262C112.217 352.24 113.271 355.387 114.53 358.511C114.626 358.748 115.058 358.754 115.026 358.445C114.33 351.838 110.143 346.172 106.792 340.674C105.051 337.819 102.886 335.517 100.558 333.135C98.1535 330.675 95.7051 328.349 92.886 326.365C92.5434 326.124 92.1068 326.681 92.4339 326.951Z" fill="white"/>
<path d="M132.383 319.171C129.965 320.541 129.888 324.357 129.841 326.794C129.749 331.477 130.909 335.874 128.854 340.335C126.998 344.366 124.032 347.731 121.701 351.474C119.517 354.977 117.365 359.456 117.413 363.673C117.416 363.916 117.791 364.055 117.904 363.806C118.783 361.891 119.099 359.717 119.728 357.711C120.436 355.454 121.425 353.406 122.704 351.422C124.948 347.946 127.702 344.782 129.522 341.043C131.44 337.102 131.159 333.199 131.032 328.93C130.951 326.208 130.679 321.833 132.874 319.808C133.218 319.493 132.779 318.948 132.383 319.171Z" fill="white"/>
<path d="M116.226 364.109C106.493 363.974 87.9521 363.867 87.9521 363.867L92.5402 397.93C93.5721 405.592 100.113 411.311 107.846 411.311H115.84H116.612H124.606C132.339 411.311 138.879 405.592 139.91 397.93L144.498 363.867C144.498 363.867 125.96 363.974 116.226 364.109Z" fill="white"/>
<path d="M586.69 301.513L531.16 411.504L369.273 412.667L419.234 299.963L586.69 301.513Z" fill="#F6F7FA"/>
<path d="M261.829 411.98L261.86 403.176H366.658L414.876 297.446H582.477L586.69 301.512H422.96L372.854 411.892C372.854 411.892 261.829 411.691 261.829 411.98Z" fill="#D9DFE9"/>
<path d="M502.624 362.208C500.795 367.695 490.869 371.932 480.453 371.671C470.038 371.411 463.077 366.751 464.905 361.265C466.734 355.78 476.66 351.542 487.076 351.804C497.491 352.063 504.454 356.723 502.624 362.208Z" fill="#D9DFE9"/>
<path d="M372.856 412.594C372.759 412.594 372.659 412.573 372.565 412.531C372.213 412.371 372.057 411.955 372.217 411.601L422.509 300.811H586.691C587.078 300.811 587.393 301.125 587.393 301.513C587.393 301.9 587.078 302.215 586.691 302.215H423.415L373.495 412.182C373.378 412.441 373.121 412.594 372.856 412.594Z" fill="white"/>
<path d="M254.538 463.013H61.957V420.315H254.538V463.013Z" fill="#F0F0F0"/>
<path d="M599.928 463.013H253.437V420.315H599.928V463.013Z" fill="#E7E7E7"/>
<mask id="mask2_8_1979" style="mask-type:luminance" maskUnits="userSpaceOnUse" x="61" y="420" width="539" height="9">
<path d="M61.9551 420.315H599.925V428.158H61.9551V420.315Z" fill="white"/>
</mask>
<g mask="url(#mask2_8_1979)">
<path d="M254.536 420.315H253.435H61.9551V428.157H253.435H254.536H599.926V420.315H254.536Z" fill="#BCC5D9"/>
</g>
<path d="M262.961 422.348H52.6611V411.892H262.961V422.348Z" fill="#F0F0F0"/>
<path d="M608.351 422.348H261.861V411.892H608.351V422.348Z" fill="#E7E7E7"/>
<path d="M205.916 187.864H137.932C133.726 187.864 130.314 184.454 130.314 180.247V146.306C130.314 142.1 133.726 138.689 137.932 138.689H205.916C210.124 138.689 213.534 142.1 213.534 146.306V180.247C213.534 184.454 210.124 187.864 205.916 187.864Z" fill="white"/>
<path d="M232.908 163.277L207.375 152.503V174.051L232.908 163.277Z" fill="white"/>
<path d="M160.499 163.277C160.499 165.874 158.393 167.98 155.796 167.98C153.199 167.98 151.093 165.874 151.093 163.277C151.093 160.678 153.199 158.574 155.796 158.574C158.393 158.574 160.499 160.678 160.499 163.277Z" fill="#25282B"/>
<path d="M176.627 163.277C176.627 165.874 174.521 167.98 171.924 167.98C169.327 167.98 167.221 165.874 167.221 163.277C167.221 160.678 169.327 158.574 171.924 158.574C174.521 158.574 176.627 160.678 176.627 163.277Z" fill="#25282B"/>
<path d="M192.755 163.277C192.755 165.874 190.649 167.98 188.052 167.98C185.455 167.98 183.349 165.874 183.349 163.277C183.349 160.678 185.455 158.574 188.052 158.574C190.649 158.574 192.755 160.678 192.755 163.277Z" fill="#25282B"/>
<path d="M552.028 34.2806H395.077C384.997 34.2806 376.826 42.4515 376.826 52.5317V126.989C376.826 137.068 384.997 145.241 395.077 145.241H409.146C409.541 151.989 408.573 162.03 402.938 174.868C421.071 166.503 431.512 153.944 436.967 145.241H552.028C562.108 145.241 570.279 137.068 570.279 126.989V52.5317C570.279 42.4515 562.108 34.2806 552.028 34.2806Z" fill="#445555"/>
<path d="M485.074 69.7664H407.229C405.089 69.7664 403.355 68.0325 403.355 65.8943C403.355 63.7547 405.089 62.0208 407.229 62.0208H485.074C487.213 62.0208 488.948 63.7547 488.948 65.8943C488.948 68.0325 487.213 69.7664 485.074 69.7664Z" fill="white"/>
<path d="M540.892 92.3269H405.726C404.416 92.3269 403.354 91.2655 403.354 89.9557C403.354 88.6444 404.416 87.583 405.726 87.583H540.892C542.201 87.583 543.263 88.6444 543.263 89.9557C543.263 91.2655 542.201 92.3269 540.892 92.3269Z" fill="white"/>
<path d="M540.892 105.495H405.726C404.416 105.495 403.354 104.433 403.354 103.122C403.354 101.812 404.416 100.751 405.726 100.751H540.892C542.201 100.751 543.263 101.812 543.263 103.122C543.263 104.433 542.201 105.495 540.892 105.495Z" fill="white"/>
<path d="M511.408 119.534H405.728C404.418 119.534 403.355 118.471 403.355 117.162C403.355 115.852 404.418 114.79 405.728 114.79H511.408C512.719 114.79 513.781 115.852 513.781 117.162C513.781 118.471 512.719 119.534 511.408 119.534Z" fill="white"/>
<path d="M539.83 69.7664H502.695C500.555 69.7664 498.821 68.0325 498.821 65.8943C498.821 63.7547 500.555 62.0208 502.695 62.0208H539.83C541.968 62.0208 543.702 63.7547 543.702 65.8943C543.702 68.0325 541.968 69.7664 539.83 69.7664Z" fill="white"/>
<path d="M446.234 240.999H404.069C402.517 240.999 401.261 239.741 401.261 238.191V209.385C401.261 207.835 402.517 206.577 404.069 206.577H446.234C447.784 206.577 449.042 207.835 449.042 209.385V238.191C449.042 239.741 447.784 240.999 446.234 240.999Z" fill="white"/>
<path d="M425.443 228.932C425.206 228.932 424.967 228.852 424.772 228.69L401.825 209.737C401.376 209.366 401.314 208.702 401.683 208.254C402.057 207.805 402.719 207.745 403.166 208.113L425.425 226.499L447.117 207.623C447.555 207.242 448.222 207.287 448.603 207.727C448.986 208.165 448.938 208.83 448.5 209.212L426.134 228.673C425.938 228.845 425.69 228.932 425.443 228.932Z" fill="#6880AC"/>
<path d="M402.495 240.212C402.234 240.212 401.973 240.117 401.769 239.922C401.348 239.522 401.331 238.855 401.733 238.434L417.783 221.561C418.18 221.14 418.85 221.122 419.27 221.523C419.692 221.925 419.709 222.592 419.307 223.013L403.258 239.885C403.051 240.103 402.773 240.212 402.495 240.212Z" fill="#6880AC"/>
<path d="M447.807 239.596C447.538 239.596 447.267 239.493 447.062 239.287L431.077 223.258C430.667 222.845 430.667 222.178 431.079 221.769C431.492 221.357 432.159 221.359 432.569 221.77L448.553 237.799C448.963 238.211 448.963 238.878 448.55 239.288C448.345 239.493 448.075 239.596 447.807 239.596Z" fill="#6880AC"/>
<path d="M465.321 205.513C465.321 213.293 459.014 219.601 451.234 219.601C443.453 219.601 437.146 213.293 437.146 205.513C437.146 197.732 443.453 191.425 451.234 191.425C459.014 191.425 465.321 197.732 465.321 205.513Z" fill="#FF5551"/>
</svg>
