<svg width="28" height="28" viewBox="0 0 28 28" fill="none" xmlns="http://www.w3.org/2000/svg">
<g id="Group 116267">
<path id="Vector" d="M14 28C21.732 28 28 21.732 28 14C28 6.26801 21.732 0 14 0C6.26801 0 0 6.26801 0 14C0 21.732 6.26801 28 14 28Z" fill="#F65F19"/>
<path id="Vector_2" d="M12.2257 18.9677C12.001 18.9677 11.7793 18.9328 11.5783 18.8657C11.3773 18.7987 11.2024 18.7014 11.0676 18.5815L7.51672 15.4245C7.40223 15.3231 7.31886 15.2077 7.27136 15.0848C7.22387 14.9618 7.21321 14.8339 7.23996 14.7082C7.26671 14.5826 7.33035 14.4617 7.42727 14.3524C7.52418 14.2432 7.65244 14.1478 7.80472 14.0716C7.95701 13.9955 8.13034 13.9401 8.31476 13.9086C8.49918 13.8772 8.69107 13.8703 8.87949 13.8884C9.0679 13.9065 9.24912 13.9491 9.41277 14.0139C9.57643 14.0788 9.71932 14.1645 9.83324 14.2662L12.1564 16.3313L18.123 10.3638C18.3363 10.1513 18.6674 10.0039 19.0435 9.954C19.4197 9.90408 19.8101 9.95572 20.1292 10.0976C20.4483 10.2394 20.67 10.4599 20.7456 10.7106C20.8211 10.9613 20.7445 11.2218 20.5323 11.4348L13.4306 18.5378C13.3021 18.6662 13.1293 18.7723 12.9267 18.847C12.7241 18.9218 12.4975 18.963 12.2661 18.9674L12.2257 18.9677Z" fill="white"/>
</g>
</svg>
