<svg width="85" height="86" viewBox="0 0 85 86" fill="none" xmlns="http://www.w3.org/2000/svg">
<path id="path549" d="M32.8135 85.9009C31.2514 85.4945 29.8293 84.1156 29.4662 82.6554L29.2757 81.8895L28.3103 81.8876C27.1465 81.8856 25.8829 81.3339 25.0829 80.4786C24.5118 79.8679 23.8405 78.5503 23.8341 78.0273C23.8308 77.7685 23.6588 77.7233 22.6731 77.7218C20.0388 77.7179 18.1165 75.9017 17.8734 73.1869C17.783 72.1782 17.7774 72.1692 17.2366 72.1692C15.8363 72.1692 14.2345 71.183 13.4592 69.8435C12.6237 68.4001 12.5752 66.6819 13.3248 65.0826C13.5449 64.6132 13.5632 64.3938 13.4126 64.0332C12.3644 61.5242 11.3184 58.8492 11.3169 58.6739C11.3156 58.5546 11.238 58.4569 11.1437 58.4569C11.0494 58.4569 10.9722 58.5386 10.9722 58.6384C10.9722 58.9884 10.1262 59.672 9.69294 59.672C9.085 59.672 0.403178 55.2503 0.179215 54.8266C0.0806464 54.6401 0 54.329 0 54.1352C0 53.6881 13.795 28.4471 14.2629 28.0382C14.4541 27.8712 14.7954 27.7345 15.0214 27.7345C15.554 27.7345 23.8688 31.9438 24.3333 32.4486C24.7847 32.9392 24.7823 33.5632 24.326 34.321L23.9658 34.9192L24.9695 35.8416C27.0469 37.7507 29.8171 39.2981 31.9799 39.7574C32.8462 39.9413 33.2018 39.8767 39.4607 38.3988L46.0319 36.8471L48.9464 36.8517C51.5472 36.8556 52.0731 36.9083 53.8325 37.3425C56.2664 37.9431 58.2673 38.0886 60.2244 37.8073C61.0463 37.6892 61.7188 37.5684 61.7188 37.539C61.7188 37.5094 61.4102 36.9434 61.033 36.2811C60.2451 34.8975 60.1966 34.5167 60.733 33.9227C60.9451 33.6877 63.0645 32.5027 65.4428 31.2894C69.7508 29.0914 70.073 28.979 70.7598 29.4343C71.1278 29.6782 84.8896 53.4853 84.9803 54.0351C85.0394 54.3928 84.9663 54.6784 84.7508 54.9325C84.3256 55.4338 75.9223 59.6722 75.3537 59.6722C75.1064 59.6722 74.7219 59.4878 74.4993 59.2623L74.0944 58.8525L72.4277 60.5463L70.7609 62.2402L71.0402 63.07C71.3903 64.1104 71.3977 65.5911 71.0585 66.7474C70.7633 67.754 69.4968 69.2898 68.5252 69.8196C68.1324 70.0337 67.5885 70.6686 66.9246 71.6879C65.872 73.3042 64.7706 74.3293 63.4811 74.8933C62.9138 75.1413 62.5532 75.5161 61.7597 76.6824C60.1155 79.099 58.2175 80.3051 55.3754 80.7392C54.2363 80.9133 53.9723 81.0299 53.061 81.7615C49.6432 84.5053 45.1022 85.4929 40.8849 84.4098L39.2084 83.9792L38.5266 84.6029C37.467 85.5721 36.4864 85.9379 34.8025 85.9923C34.001 86.0181 33.1059 85.977 32.8134 85.9009L32.8135 85.9009ZM36.19 82.9011C36.7126 82.6037 37.3063 81.8308 38.9993 79.2438C41.2694 75.7747 41.4552 75.2974 40.8663 74.4462C40.5564 73.9983 39.6546 73.5575 39.0512 73.559C37.7942 73.5623 37.5084 73.8007 34.7855 77.1202C33.3366 78.8865 32.0891 80.5017 32.0131 80.7095C31.7323 81.4782 32.3517 82.7796 33.1546 83.108C33.8875 83.4078 35.4916 83.2985 36.19 82.9011ZM47.0418 81.7209C48.636 81.3081 50.9185 80.1537 50.5582 79.9424C50.2445 79.7585 44.6773 76.2935 44.6048 76.2371C44.5418 76.188 45.9442 73.9052 46.0375 73.9052C46.0708 73.9052 47.2789 74.6586 48.7223 75.5794C52.2838 77.8516 52.5657 77.9716 54.3468 77.9727C55.5792 77.9733 55.9659 77.8986 56.8528 77.4882C58.001 76.9568 59.5524 75.5365 59.134 75.3999C58.9998 75.3561 58.5814 75.2247 58.2042 75.1081C57.3012 74.829 47.4892 69.41 47.4892 69.1904C47.4892 68.9379 48.5839 66.9667 48.7254 66.9643C48.7925 66.963 51.1455 68.23 53.9544 69.7796C59.0119 72.5695 59.0732 72.5975 60.2753 72.661C61.2469 72.7124 61.6658 72.6482 62.374 72.3398C63.1549 71.9997 64.4618 70.8328 64.4618 70.4757C64.4618 70.4039 64.2083 70.2648 63.8985 70.1666C63.5023 70.041 52.3092 63.0005 51.4517 62.3374C51.3817 62.2833 52.8007 60.0193 52.9047 60.0193C52.938 60.0193 55.5575 61.6945 58.7259 63.7418C61.8943 65.7892 64.7561 67.5544 65.0854 67.6644C66.7691 68.227 68.5743 66.845 68.5758 64.9924C68.5771 63.6255 68.2294 63.1456 65.9476 61.3616C59.8893 56.6251 52.2486 51.6807 46.3748 48.6958C45.2412 48.1198 45.1177 48.094 44.1461 48.2301C43.5803 48.3094 42.2972 48.4274 41.2946 48.4923L39.4719 48.6103L39.2654 49.3246C38.7716 51.0325 37.266 52.74 35.5257 53.5659C34.5688 54.0199 34.4543 54.0324 30.7348 54.0864L26.9241 54.1417L26.4916 53.7037C26.2537 53.4628 26.059 53.1067 26.059 52.9122C26.059 52.7177 26.9077 50.2671 27.9449 47.4663C28.9821 44.6656 29.83 42.3022 29.8292 42.2143C29.8285 42.1264 29.1532 41.7423 28.329 41.3607C26.5524 40.5381 24.7686 39.3821 23.5431 38.2591C22.8936 37.6639 22.6184 37.5053 22.516 37.6674C22.0539 38.3992 13.0295 54.8978 13.0295 55.0109C13.0295 55.295 14.3776 59.2922 14.9106 60.5885L15.4641 61.9346L16.1339 61.2565C17.6906 59.6804 20.0854 59.3178 22.092 60.3542C22.9103 60.7768 24.0897 62.1013 24.3449 62.8843L24.5337 63.4634L25.4954 63.0177C27.3243 62.17 29.5912 62.5288 31.009 63.8903C31.5908 64.449 32.3976 65.9399 32.4007 66.4621C32.402 66.6852 32.5938 66.7448 33.3313 66.7515C34.4412 66.7616 35.6784 67.2717 36.4951 68.056C37.0662 68.6045 37.8834 70.1024 37.8869 70.6073C37.8882 70.8131 38.1497 70.8713 39.1336 70.8847C41.7044 70.9198 43.551 72.518 43.836 74.9545C43.9872 76.247 43.6199 77.2341 42.1488 79.4883L40.8148 81.5323L41.4518 81.6978C42.6397 82.0063 42.7734 82.0229 44.2472 82.043C45.2113 82.0562 46.1765 81.9449 47.0418 81.7209V81.7209ZM29.6328 78.833C30.2586 78.4488 34.845 72.8248 35.0714 72.164C35.5857 70.6629 34.2359 69.1368 32.7279 69.5142C32.0372 69.6871 31.6575 70.0683 29.2188 73.0373C26.4641 76.3911 26.2581 76.7719 26.6445 77.7962C26.7929 78.1896 27.1258 78.6428 27.3864 78.8064C27.9855 79.1825 29.0432 79.195 29.6328 78.833V78.833ZM24.3922 74.4365C25.3645 73.5723 29.3904 68.563 29.5998 67.957C29.7085 67.6424 29.7566 67.1688 29.7068 66.9047C29.5886 66.279 28.7688 65.4584 28.1169 65.3134C26.9964 65.0643 26.6092 65.3174 23.7738 68.1534C22.2812 69.6462 20.9504 71.0786 20.8165 71.3364C20.4987 71.948 20.5052 73.2691 20.8291 73.9033C21.2279 74.684 21.7325 74.9466 22.8338 74.9466C23.6787 74.9466 23.8997 74.8743 24.3922 74.4365ZM19.1328 68.8973C20.0507 68.2177 21.5661 66.5586 21.7736 66.0061C22.5504 63.9374 20.8952 61.9589 18.957 62.6396C18.3952 62.8369 18.0261 63.1974 17.0191 64.5322C15.5638 66.4612 15.3176 67.0472 15.5993 67.9112C16.083 69.3951 17.8096 69.8769 19.1328 68.8973ZM70.8725 58.2464C72.5333 56.4602 72.6639 56.2708 72.459 55.9466C72.3362 55.7522 70.208 52.0979 67.7297 47.8258C65.2514 43.5537 63.1358 40.0612 63.0284 40.0646C62.921 40.0679 62.3702 40.1849 61.8045 40.3244C59.2199 40.9618 56.345 40.8414 52.6452 39.9408C51.0744 39.5585 50.5758 39.5144 48.5306 39.5766C46.3196 39.6439 45.8652 39.7274 39.4338 41.2478C35.7105 42.128 32.6173 42.9039 32.56 42.9721C32.4555 43.0963 29.4879 51.0991 29.4879 51.2567C29.4879 51.3029 30.4715 51.3389 31.6737 51.3366C33.7266 51.3327 33.9118 51.3038 34.7168 50.8589C35.7701 50.277 36.5371 49.1745 36.839 47.8086C36.9599 47.262 37.2354 46.6068 37.4514 46.3527C37.8335 45.9029 37.9137 45.887 40.4385 45.7598C43.137 45.6239 44.4581 45.4734 47.9178 44.9078C49.0493 44.7228 50.1001 44.5714 50.2529 44.5714C50.4657 44.5713 50.5584 44.8181 50.6485 45.6245C50.7132 46.2037 50.8071 46.7855 50.8571 46.9174C50.9172 47.0762 50.7648 47.2052 50.4055 47.2994C49.8631 47.4417 49.8633 47.4419 51.3763 48.2938C55.8757 50.8273 62.2562 55.0589 66.2619 58.1663C67.6763 59.2635 68.8851 60.1683 68.9481 60.177C69.0112 60.1858 69.8771 59.317 70.8725 58.2464ZM81.5404 53.2043C81.4074 52.9908 78.6966 48.3248 75.5165 42.8356C72.3364 37.3463 69.6389 32.7516 69.5221 32.6251C69.3478 32.4362 68.8144 32.6461 66.5429 33.7977C65.0211 34.5692 63.776 35.2826 63.776 35.383C63.776 35.52 73.4815 52.3743 75.6362 55.9791L75.9706 56.5385L78.8765 55.0656C81.7313 53.6185 81.7781 53.5858 81.5404 53.2043ZM15.2865 45.0913L21.417 33.9185L18.6418 32.4578C16.8293 31.5037 15.7908 31.0484 15.648 31.145C15.5278 31.2264 12.6933 36.2919 9.34908 42.4017L3.26867 53.5103L6.04894 54.9326C7.57809 55.7149 8.90275 56.3344 8.99262 56.3094C9.0825 56.2845 11.9148 51.2363 15.2865 45.0913ZM34.7682 27.0703C30.7776 23.6499 27.0639 20.3498 26.5155 19.7368C25.3939 18.4831 24.1726 16.1493 23.7068 14.3696C23.2943 12.7935 23.3006 9.60737 23.7189 8.20773C24.8349 4.47435 27.3493 1.81045 30.9467 0.55005C32.1228 0.138001 32.5955 0.0686723 34.2882 0.0599537C37.2344 0.0447995 39.2703 0.775591 41.5735 2.67514L42.5173 3.45354L43.4612 2.67514C45.4684 1.01974 47.5532 0.18147 50.0607 0.0215048C55.144 -0.302775 59.7797 3.06889 61.3158 8.20773C61.7342 9.60737 61.7404 12.7935 61.3279 14.3696C60.8621 16.1493 59.6408 18.4831 58.5192 19.7368C57.9708 20.3498 54.2571 23.6499 50.2665 27.0703C44.3914 32.1059 42.9171 33.2891 42.5173 33.2891C42.1176 33.2891 40.6432 32.1059 34.7681 27.0703H34.7682ZM49.4725 24.1294C55.4876 18.9699 56.4105 18.1121 57.176 16.9695C59.8361 12.9991 59.4693 7.95595 56.3071 5.02146C53.6596 2.56462 50.0018 2.05391 46.8038 3.6946C46.3358 3.93472 45.2982 4.7555 44.4981 5.51856C42.5678 7.35934 42.4669 7.35934 40.5367 5.51856C38.4536 3.53198 36.666 2.7281 34.3808 2.75018C27.3378 2.81823 23.6969 10.7576 27.8594 16.9706C28.6271 18.1164 29.5381 18.9619 35.5736 24.1305C39.3377 27.3539 42.4672 29.9912 42.528 29.9912C42.5889 29.9912 45.7139 27.3534 49.4725 24.1294Z" fill="white"/>
</svg>
