<svg width="82" height="86" viewBox="0 0 82 86" fill="none" xmlns="http://www.w3.org/2000/svg">
<path id="path551" d="M34.5262 85.6851C33.4385 85.3066 32.4268 84.364 31.8948 83.2333C31.5598 82.5216 31.4992 82.1322 31.4979 80.6824C31.497 79.7414 31.5693 78.7779 31.6586 78.5412C31.8101 78.1396 31.7669 78.0833 31.0104 77.6971C30.0171 77.1899 29.0998 76.1423 28.7542 75.1204C28.4021 74.0792 28.4128 71.694 28.7744 70.6222C28.963 70.063 29.3351 69.517 29.9209 68.9399L30.7882 68.0855L30.392 66.5041C29.6214 63.428 28.213 61.1197 25.708 58.8275C20.284 53.8641 17.4998 47.2743 17.8855 40.3125C18.4825 29.5388 26.0121 21.1826 36.915 19.1943C38.9254 18.8277 43.0743 18.8277 45.0848 19.1943C48.7959 19.8711 52.6583 21.52 55.354 23.5784C60.5946 27.5798 63.7663 33.6592 64.1226 40.3852C64.4912 47.344 61.7034 53.8628 56.192 58.9296C53.7324 61.1907 52.3819 63.4206 51.6109 66.4935L51.2186 68.0571L52.0821 68.9271C52.6525 69.5017 53.0406 70.0778 53.2252 70.6236C53.587 71.6935 53.5978 74.0787 53.2455 75.1204C52.8999 76.1423 51.9826 77.1899 50.9894 77.6971C50.2328 78.0833 50.1896 78.1396 50.3411 78.5412C50.4304 78.7779 50.5028 79.7414 50.5019 80.6824C50.5 82.742 50.1474 83.6783 48.9607 84.776C47.7003 85.9417 47.2787 86.006 40.9279 85.9996C36.0163 85.9946 35.3174 85.9604 34.5262 85.6851H34.5262ZM46.3856 82.9701C47.3009 82.714 47.6677 82.028 47.6684 80.5707C47.6691 79.4857 47.6367 79.3874 47.1022 78.8489L46.5353 78.2777H40.9999H35.4644L34.8975 78.8489C34.363 79.3874 34.3307 79.4857 34.3313 80.5707C34.3321 81.9719 34.7084 82.7201 35.5331 82.9597C36.302 83.1832 45.5924 83.192 46.3856 82.9701V82.9701ZM50.0424 74.7637C50.573 74.286 50.5869 74.2387 50.5869 72.9021C50.5869 71.5655 50.573 71.5182 50.0424 71.0404L49.4978 70.5503H40.9999H32.5019L31.9574 71.0404C31.4267 71.5182 31.4129 71.5655 31.4129 72.9021C31.4129 74.2387 31.4267 74.286 31.9574 74.7637L32.5019 75.2539H40.9999H49.4978L50.0424 74.7637ZM36.4981 59.8163V52.1061L34.4557 52.0395C32.0562 51.9612 31.1291 51.6404 30.0288 50.5079C27.6181 48.0266 28.3387 44.0162 31.475 42.4593C32.1297 42.1343 32.5117 42.0763 33.9972 42.0763C35.5777 42.0763 35.8309 42.1205 36.6021 42.5303C37.666 43.0958 38.725 44.2875 39.0699 45.3073C39.2309 45.7832 39.3326 46.6578 39.3326 47.5659V49.0478H40.9771H42.6217L42.7032 47.4793C42.8795 44.0819 44.6337 42.1901 47.7608 42.0247C49.6638 41.9241 50.719 42.2589 51.8865 43.334C54.0462 45.3227 54.1551 48.4314 52.1376 50.5079C51.0374 51.6404 50.1102 51.9612 47.7108 52.0395L45.6683 52.1061V59.8231V67.5401L47.0195 67.4912L48.3707 67.4425L48.7507 65.9306C49.4154 63.2856 50.515 60.9675 51.9632 59.1577C52.3834 58.6327 53.6813 57.2582 54.8474 56.1033C58.0792 52.9026 59.7099 50.1538 60.6718 46.2852C62.3252 39.6354 60.3717 32.4688 55.5858 27.6271C52.9185 24.9287 49.538 23.1206 45.5016 22.2334C43.5086 21.7954 38.5077 21.7915 36.5321 22.2264C32.431 23.1294 29.072 24.9349 26.3276 27.7115C20.5267 33.5805 19.0789 42.8267 22.7893 50.3077C23.8665 52.4794 24.9944 53.9542 27.4801 56.4407C30.0301 58.9915 31.1115 60.4245 32.0796 62.5358C32.6462 63.7713 33.497 66.459 33.497 67.0133C33.497 67.479 33.6459 67.5264 35.1087 67.5264H36.4981V59.8163ZM42.6672 59.799V52.0716H40.9999H39.3326V59.799V67.5265H40.9999H42.6672V59.799ZM36.4981 47.8553C36.4981 45.8931 35.9279 45.1334 34.2918 44.9159C32.294 44.6503 30.8918 46.3749 31.7484 48.044C32.1627 48.8511 32.7039 49.0336 34.7058 49.0411L36.4981 49.0478V47.8553ZM49.6382 48.8206C50.5583 48.3061 50.9266 47.0109 50.4286 46.0406C49.6815 44.585 46.9705 44.4601 46.0496 45.8389C45.7329 46.3131 45.6683 46.633 45.6683 47.7288V49.0478L47.4607 49.0421C48.5964 49.0383 49.3941 48.9573 49.6382 48.8208V48.8206ZM62.5914 73.9127C62.2246 73.7296 60.8922 72.5373 59.6304 71.2633L57.3364 68.9469L58.3344 67.9518L59.3324 66.9568L61.5703 69.1735C63.9284 71.5092 64.2279 71.678 65.1204 71.1742C65.3193 71.062 66.651 69.8148 68.0799 68.4026C70.3284 66.1802 70.6779 65.7647 70.6779 65.313C70.6779 64.8676 70.3353 64.4406 68.3436 62.4028C65.5852 59.5807 65.5871 59.5861 66.7466 57.7116C68.4514 54.9557 69.7223 51.8815 70.7614 48.0001C71.1418 46.579 71.2945 46.528 75.1713 46.528C78.1115 46.528 78.3719 46.5034 78.6767 46.1963C78.8578 46.0139 79.0496 45.6892 79.103 45.4749C79.1563 45.2606 79.177 43.4377 79.1489 41.4241L79.0977 37.7629L78.6299 37.3578C78.1689 36.9585 78.1135 36.9527 74.7906 36.9527C71.1175 36.9527 70.89 36.9013 70.5464 35.9935C70.4489 35.7357 70.2421 34.9201 70.0869 34.1809C69.5728 31.7314 68.3476 28.7225 66.729 25.9347C65.4016 23.6483 65.3643 23.7728 68.2603 20.8315C70.7407 18.3122 70.9008 18.0552 70.4932 17.2451C70.3917 17.0433 69.1359 15.6876 67.7025 14.2324C65.5605 12.0578 65.0122 11.5866 64.6242 11.5866C64.2432 11.5866 63.6866 12.0405 61.7403 13.9384C58.8941 16.7137 58.913 16.7073 57.0513 15.54C54.3495 13.8459 51.0803 12.4453 48.2069 11.7509C45.9507 11.2056 46.0018 11.3089 46.0018 7.28812C46.0018 3.72589 45.915 3.30669 45.1203 3.02754C44.8348 2.92727 43.1879 2.85119 41.3031 2.85119C37.6401 2.85119 36.9624 2.98656 36.6638 3.77793C36.5727 4.0194 36.4981 5.71075 36.4981 7.5365C36.4981 11.4804 36.5309 11.4101 34.4924 11.8356C31.6898 12.4206 28.2484 13.8106 25.3125 15.5435C24.6167 15.9542 23.8385 16.2902 23.5833 16.2902C23.2113 16.2902 22.6248 15.8064 20.6306 13.8544C18.0179 11.2971 17.7555 11.1422 16.8733 11.6363C16.6712 11.7495 15.3395 13.0039 13.9139 14.4239C11.7099 16.6193 11.3218 17.0815 11.3218 17.5117C11.3218 17.9366 11.6962 18.4007 13.6561 20.4059C16.4112 23.2247 16.4309 23.2801 15.2987 25.0415C13.6732 27.5705 12.2701 30.9453 11.2378 34.8086C10.8592 36.2258 10.7004 36.2796 6.87009 36.2861C4.66934 36.2899 3.65681 36.3524 3.47107 36.4961C2.88293 36.951 2.8186 37.393 2.8186 40.9788C2.8186 44.8542 2.95283 45.5974 3.68294 45.7644C3.89532 45.813 5.54839 45.8724 7.35644 45.8964C10.1467 45.9334 10.6852 45.9818 10.9177 46.2164C11.0683 46.3684 11.4398 47.4773 11.7431 48.6807C12.5664 51.9464 13.809 54.8823 15.5209 57.6061C16.4011 59.0065 16.3211 59.1859 13.5727 61.9773C11.051 64.5384 10.9044 64.7825 11.3752 65.6364C11.4897 65.8442 12.7387 67.186 14.1507 68.6182C17.0389 71.5478 17.1786 71.6178 18.277 70.6881C18.6241 70.3943 19.6391 69.4324 20.5326 68.5505L22.1572 66.9469L23.1601 67.9468L24.163 68.9468L22.0357 71.1103C19.563 73.6251 18.8306 74.0738 17.1937 74.0763C16.6177 74.077 15.879 73.9655 15.5523 73.8279C14.8604 73.5366 13.2003 71.9605 10.5857 69.1123C8.56445 66.9105 8.27811 66.3622 8.29745 64.7306C8.3138 63.3517 8.67421 62.7516 10.7699 60.6138L12.7104 58.6342L12.1772 57.6628C10.871 55.2831 9.52576 51.9086 8.87689 49.3838L8.72579 48.7958L5.73051 48.7118C2.44458 48.6197 2.18494 48.5505 1.21164 47.5083C0.0910656 46.3083 0.0728497 46.2153 0.0153215 41.4063C-0.0439515 36.4515 0.0261584 35.9897 1.00858 34.8652C2.14141 33.5686 2.8103 33.3533 5.92406 33.2836L8.61269 33.2233L9.30803 31.0549C9.72297 29.7609 10.5374 27.8203 11.3275 26.2428L12.6517 23.5992L10.9106 21.8345C9.8281 20.7374 9.04189 19.784 8.83213 19.314C8.36732 18.2725 8.36962 16.6415 8.8373 15.6681C9.31935 14.6648 14.6968 9.45615 15.7804 8.94291C16.7337 8.49137 18.3621 8.43369 19.2774 8.81904C19.6156 8.96141 20.7587 9.94358 21.8494 11.0289L23.8126 12.9826L25.9454 11.8822C28.2863 10.6745 30.5961 9.76231 32.442 9.31649L33.6378 9.02766L33.6924 5.98142C33.7462 2.98362 33.7546 2.92229 34.2202 2.1242C34.7238 1.26101 35.8027 0.448605 36.8259 0.162225C37.15 0.0715013 39.2534 -0.00149051 41.5001 2.31229e-05C45.2496 0.00256278 45.6466 0.0308674 46.3352 0.344965C47.3428 0.804495 47.9652 1.42171 48.4388 2.43122C48.8039 3.2093 48.8331 3.47792 48.8346 6.07848L48.8365 8.8858L49.5451 9.06726C51.4154 9.54622 53.6518 10.43 56.0051 11.62L58.5887 12.9265L60.3401 11.1722C62.3729 9.13615 63.0759 8.73991 64.6649 8.73445C66.3332 8.72874 66.8102 9.05201 69.9484 12.3152C73.089 15.581 73.5083 16.2392 73.5109 17.9076C73.5134 19.4561 73.1903 20.0193 71.0397 22.2163C69.2804 24.0135 69.1221 24.2255 69.3109 24.5302C69.6833 25.1309 71.1465 28.1245 71.5273 29.0644C71.7315 29.5686 72.1745 30.8883 72.5117 31.9971L73.1248 34.0129L76.1114 34.0969C79.3812 34.1889 79.9009 34.3293 80.8713 35.3834C81.9006 36.5014 81.9278 36.6485 81.9847 41.4024C82.044 46.3573 81.9738 46.819 80.9914 47.9435C79.8586 49.2402 79.1897 49.4554 76.0759 49.5252L73.3873 49.5854L72.6796 51.7945C72.2426 53.1584 71.4691 54.9983 70.6576 56.604L69.3432 59.2045L71.0868 60.9716C72.1714 62.0708 72.958 63.0246 73.1679 63.4948C73.6318 64.5344 73.6303 66.1674 73.1647 67.137C72.6687 68.1693 67.3715 73.316 66.26 73.8455C65.171 74.3644 63.5558 74.3939 62.592 73.9127H62.5914Z" fill="white"/>
</svg>
