<svg width="77" height="78" viewBox="0 0 77 78" fill="none" xmlns="http://www.w3.org/2000/svg">
<g id="path21">
<mask id="path-1-inside-1_8_1820" fill="white">
<path d="M5.53517 76.8102C2.87886 76.1659 0.662422 73.85 0.1587 71.1924C-0.0529 70.076 -0.0529 21.418 0.1587 20.3016C0.68161 17.5428 3.09641 15.1266 5.8537 14.6034C6.36368 14.5067 11.306 14.4499 19.2144 14.4499C33.1827 14.4499 32.3843 14.3914 33.2106 15.4746L33.6157 16.0057L33.6601 20.017L33.7045 24.0284L34.7761 24.1943C38.6661 24.7968 41.435 28.5749 40.7847 32.3931C40.2515 35.524 37.9157 37.873 34.8179 38.3938L33.6909 38.5833V40.9549V43.3265L38.0413 43.3706C42.1637 43.4124 42.4134 43.431 42.8066 43.725C43.8955 44.539 44.1792 45.6745 43.6191 46.9772C43.0634 48.2697 43.3396 49.3649 44.426 50.1765C45.0083 50.6115 46.4347 50.6115 47.017 50.1765C48.1034 49.3649 48.3796 48.2697 47.8239 46.9772C47.3929 45.9748 47.4709 45.067 48.0537 44.3026C48.7945 43.3308 48.8429 43.3245 55.2525 43.3721L61.0091 43.4148L61.54 43.8201C62.6232 44.647 62.5646 43.8406 62.5621 57.8823C62.5599 71.5358 62.5616 71.5047 61.7423 73.122C61.5372 73.5271 60.9882 74.2705 60.5223 74.7739C59.5654 75.8081 58.0654 76.6436 56.7165 76.8939C56.1963 76.9904 47.0489 77.0397 31.1515 77.0316C10.5776 77.0212 6.25099 76.9838 5.53517 76.8102ZM28.8786 69.8511V67.4729L27.7778 67.2879C24.6625 66.7641 22.2479 64.3356 21.7698 61.2452C21.1739 57.3934 23.9256 53.6831 27.8259 53.079L28.8786 52.916V50.5352V48.1545H24.7383C20.1191 48.1545 19.8832 48.1136 19.1802 47.1914C18.5975 46.427 18.5195 45.5192 18.9504 44.5168C19.5062 43.2243 19.23 42.1291 18.1436 41.3175C17.5613 40.8825 16.1348 40.8825 15.5525 41.3175C14.4661 42.1291 14.1899 43.2243 14.7457 44.5168C15.1766 45.5192 15.0986 46.427 14.5159 47.1914C13.8129 48.1136 13.577 48.1545 8.95779 48.1545H4.81745V59.204C4.81745 66.6654 4.86951 70.3911 4.97784 70.6771C5.19133 71.2409 5.69302 71.7709 6.24608 72.0168C6.60838 72.1779 8.88135 72.2186 17.7879 72.2233L28.8786 72.2292V69.8511ZM56.6415 71.8438C56.8699 71.6731 57.1963 71.3466 57.3668 71.1181C57.6726 70.7083 57.6774 70.5487 57.7173 59.4285L57.7577 48.1545H55.3781H52.9985L52.8135 49.256C52.2899 52.3736 49.9285 54.7342 46.8118 55.2557C42.9787 55.8971 39.2184 53.1234 38.6127 49.2078L38.4497 48.1545H36.0768H33.7039L33.6598 52.5073C33.618 56.632 33.5994 56.8819 33.3056 57.2753C32.4921 58.3648 31.3572 58.6487 30.0553 58.0883C28.7635 57.5322 27.6689 57.8086 26.8578 58.8956C26.423 59.4782 26.423 60.9055 26.8578 61.4881C27.6689 62.5751 28.7635 62.8515 30.0553 62.2954C31.3572 61.735 32.4921 62.0189 33.3056 63.1084C33.5995 63.5018 33.618 63.7517 33.6598 67.8792L33.7039 72.2348L44.9651 72.1944C56.0725 72.1545 56.232 72.1497 56.6415 71.8438ZM9.73921 42.2862C9.97902 40.736 10.649 39.4329 11.7963 38.285C15.9632 34.1157 22.9585 36.3929 23.9401 42.2381L24.125 43.3395H26.4953H28.8656L28.9097 38.9867C28.9515 34.862 28.9701 34.6121 29.2639 34.2187C30.0775 33.1292 31.2123 32.8453 32.5142 33.4057C33.8061 33.9618 34.9006 33.6854 35.7118 32.5984C36.1465 32.0158 36.1465 30.5885 35.7118 30.0059C34.9006 28.9189 33.8061 28.6425 32.5142 29.1986C31.2123 29.759 30.0775 29.4751 29.2639 28.3856C28.9701 27.9922 28.9515 27.7423 28.9097 23.6148L28.8656 19.2592L17.6044 19.2996C6.49705 19.3395 6.33754 19.3443 5.92799 19.6503C5.69961 19.8209 5.37324 20.1475 5.20271 20.376C4.89688 20.7857 4.8921 20.9453 4.85226 32.0655L4.81185 43.3396H7.19406H9.57627L9.73921 42.2862ZM58.4698 40.6981C57.1555 40.3793 56.1264 39.7847 55.0844 38.7422C53.9617 37.6188 53.2874 36.302 53.0504 34.7697L52.8885 33.7232L48.8645 33.6788C45.0723 33.6369 44.8166 33.6165 44.4256 33.3241C44.1974 33.1535 43.8711 32.8269 43.7006 32.5984C43.3996 32.1951 43.3905 32.0078 43.3905 26.2128V20.2428L43.7416 19.7504C44.1693 19.1504 45.0792 18.6629 45.7716 18.6629C46.0538 18.6629 46.608 18.806 47.0032 18.9809C48.2232 19.5209 49.3492 19.2247 50.1485 18.1536C50.5832 17.5709 50.5832 16.1437 50.1485 15.5611C49.3319 14.4668 48.4464 14.243 46.9498 14.7528C45.422 15.2732 44.2339 14.9 43.5905 13.6975C43.3267 13.2047 43.3113 12.7975 43.3496 7.35111C43.389 1.74131 43.4017 1.51636 43.7006 1.11603C43.8711 0.887599 44.1975 0.561098 44.4259 0.390471C44.8366 0.0836255 44.98 0.0798013 57.5651 0.0401001C65.7649 0.0142302 70.5846 0.0546484 71.1205 0.153768C73.1042 0.520672 75.2631 2.11882 76.1555 3.88088C77.0014 5.55095 76.9964 5.46071 76.9988 19.1668C77.0011 33.2084 77.0599 32.402 75.9768 33.2291L75.4461 33.6344L71.4395 33.6788L67.4329 33.7231L67.2491 34.8178C66.5467 39.0003 62.5385 41.6849 58.4698 40.6981ZM61.4759 35.715C62.5441 34.9171 62.7901 33.9147 62.2635 32.5059C61.8535 31.4088 61.9155 30.6119 62.4671 29.8883C63.1933 28.9356 63.423 28.8947 68.0412 28.8947H72.1944L72.154 17.6206C72.1141 6.50043 72.1094 6.34089 71.8035 5.9311C71.633 5.7026 71.3066 5.37605 71.0782 5.20542C70.6687 4.89942 70.5092 4.89464 59.3953 4.85477L48.1276 4.81435V7.19791V9.58145L49.2059 9.74846C53.103 10.352 55.8722 14.1267 55.2214 17.9482C54.6869 21.0862 52.2848 23.4894 49.2059 23.9662L48.1276 24.1332V26.5074V28.8817L52.4511 28.9258C56.7059 28.9692 56.7824 28.9755 57.2667 29.3211C57.8464 29.7348 58.3536 30.6539 58.3536 31.2906C58.3536 31.5391 58.2182 32.086 58.0528 32.5059C57.8874 32.9258 57.752 33.4656 57.752 33.7054C57.752 34.6276 58.3285 35.5183 59.1807 35.913C59.78 36.1906 60.9776 36.0873 61.4759 35.715Z"/>
</mask>
<path d="M5.53517 76.8102C2.87886 76.1659 0.662422 73.85 0.1587 71.1924C-0.0529 70.076 -0.0529 21.418 0.1587 20.3016C0.68161 17.5428 3.09641 15.1266 5.8537 14.6034C6.36368 14.5067 11.306 14.4499 19.2144 14.4499C33.1827 14.4499 32.3843 14.3914 33.2106 15.4746L33.6157 16.0057L33.6601 20.017L33.7045 24.0284L34.7761 24.1943C38.6661 24.7968 41.435 28.5749 40.7847 32.3931C40.2515 35.524 37.9157 37.873 34.8179 38.3938L33.6909 38.5833V40.9549V43.3265L38.0413 43.3706C42.1637 43.4124 42.4134 43.431 42.8066 43.725C43.8955 44.539 44.1792 45.6745 43.6191 46.9772C43.0634 48.2697 43.3396 49.3649 44.426 50.1765C45.0083 50.6115 46.4347 50.6115 47.017 50.1765C48.1034 49.3649 48.3796 48.2697 47.8239 46.9772C47.3929 45.9748 47.4709 45.067 48.0537 44.3026C48.7945 43.3308 48.8429 43.3245 55.2525 43.3721L61.0091 43.4148L61.54 43.8201C62.6232 44.647 62.5646 43.8406 62.5621 57.8823C62.5599 71.5358 62.5616 71.5047 61.7423 73.122C61.5372 73.5271 60.9882 74.2705 60.5223 74.7739C59.5654 75.8081 58.0654 76.6436 56.7165 76.8939C56.1963 76.9904 47.0489 77.0397 31.1515 77.0316C10.5776 77.0212 6.25099 76.9838 5.53517 76.8102ZM28.8786 69.8511V67.4729L27.7778 67.2879C24.6625 66.7641 22.2479 64.3356 21.7698 61.2452C21.1739 57.3934 23.9256 53.6831 27.8259 53.079L28.8786 52.916V50.5352V48.1545H24.7383C20.1191 48.1545 19.8832 48.1136 19.1802 47.1914C18.5975 46.427 18.5195 45.5192 18.9504 44.5168C19.5062 43.2243 19.23 42.1291 18.1436 41.3175C17.5613 40.8825 16.1348 40.8825 15.5525 41.3175C14.4661 42.1291 14.1899 43.2243 14.7457 44.5168C15.1766 45.5192 15.0986 46.427 14.5159 47.1914C13.8129 48.1136 13.577 48.1545 8.95779 48.1545H4.81745V59.204C4.81745 66.6654 4.86951 70.3911 4.97784 70.6771C5.19133 71.2409 5.69302 71.7709 6.24608 72.0168C6.60838 72.1779 8.88135 72.2186 17.7879 72.2233L28.8786 72.2292V69.8511ZM56.6415 71.8438C56.8699 71.6731 57.1963 71.3466 57.3668 71.1181C57.6726 70.7083 57.6774 70.5487 57.7173 59.4285L57.7577 48.1545H55.3781H52.9985L52.8135 49.256C52.2899 52.3736 49.9285 54.7342 46.8118 55.2557C42.9787 55.8971 39.2184 53.1234 38.6127 49.2078L38.4497 48.1545H36.0768H33.7039L33.6598 52.5073C33.618 56.632 33.5994 56.8819 33.3056 57.2753C32.4921 58.3648 31.3572 58.6487 30.0553 58.0883C28.7635 57.5322 27.6689 57.8086 26.8578 58.8956C26.423 59.4782 26.423 60.9055 26.8578 61.4881C27.6689 62.5751 28.7635 62.8515 30.0553 62.2954C31.3572 61.735 32.4921 62.0189 33.3056 63.1084C33.5995 63.5018 33.618 63.7517 33.6598 67.8792L33.7039 72.2348L44.9651 72.1944C56.0725 72.1545 56.232 72.1497 56.6415 71.8438ZM9.73921 42.2862C9.97902 40.736 10.649 39.4329 11.7963 38.285C15.9632 34.1157 22.9585 36.3929 23.9401 42.2381L24.125 43.3395H26.4953H28.8656L28.9097 38.9867C28.9515 34.862 28.9701 34.6121 29.2639 34.2187C30.0775 33.1292 31.2123 32.8453 32.5142 33.4057C33.8061 33.9618 34.9006 33.6854 35.7118 32.5984C36.1465 32.0158 36.1465 30.5885 35.7118 30.0059C34.9006 28.9189 33.8061 28.6425 32.5142 29.1986C31.2123 29.759 30.0775 29.4751 29.2639 28.3856C28.9701 27.9922 28.9515 27.7423 28.9097 23.6148L28.8656 19.2592L17.6044 19.2996C6.49705 19.3395 6.33754 19.3443 5.92799 19.6503C5.69961 19.8209 5.37324 20.1475 5.20271 20.376C4.89688 20.7857 4.8921 20.9453 4.85226 32.0655L4.81185 43.3396H7.19406H9.57627L9.73921 42.2862ZM58.4698 40.6981C57.1555 40.3793 56.1264 39.7847 55.0844 38.7422C53.9617 37.6188 53.2874 36.302 53.0504 34.7697L52.8885 33.7232L48.8645 33.6788C45.0723 33.6369 44.8166 33.6165 44.4256 33.3241C44.1974 33.1535 43.8711 32.8269 43.7006 32.5984C43.3996 32.1951 43.3905 32.0078 43.3905 26.2128V20.2428L43.7416 19.7504C44.1693 19.1504 45.0792 18.6629 45.7716 18.6629C46.0538 18.6629 46.608 18.806 47.0032 18.9809C48.2232 19.5209 49.3492 19.2247 50.1485 18.1536C50.5832 17.5709 50.5832 16.1437 50.1485 15.5611C49.3319 14.4668 48.4464 14.243 46.9498 14.7528C45.422 15.2732 44.2339 14.9 43.5905 13.6975C43.3267 13.2047 43.3113 12.7975 43.3496 7.35111C43.389 1.74131 43.4017 1.51636 43.7006 1.11603C43.8711 0.887599 44.1975 0.561098 44.4259 0.390471C44.8366 0.0836255 44.98 0.0798013 57.5651 0.0401001C65.7649 0.0142302 70.5846 0.0546484 71.1205 0.153768C73.1042 0.520672 75.2631 2.11882 76.1555 3.88088C77.0014 5.55095 76.9964 5.46071 76.9988 19.1668C77.0011 33.2084 77.0599 32.402 75.9768 33.2291L75.4461 33.6344L71.4395 33.6788L67.4329 33.7231L67.2491 34.8178C66.5467 39.0003 62.5385 41.6849 58.4698 40.6981ZM61.4759 35.715C62.5441 34.9171 62.7901 33.9147 62.2635 32.5059C61.8535 31.4088 61.9155 30.6119 62.4671 29.8883C63.1933 28.9356 63.423 28.8947 68.0412 28.8947H72.1944L72.154 17.6206C72.1141 6.50043 72.1094 6.34089 71.8035 5.9311C71.633 5.7026 71.3066 5.37605 71.0782 5.20542C70.6687 4.89942 70.5092 4.89464 59.3953 4.85477L48.1276 4.81435V7.19791V9.58145L49.2059 9.74846C53.103 10.352 55.8722 14.1267 55.2214 17.9482C54.6869 21.0862 52.2848 23.4894 49.2059 23.9662L48.1276 24.1332V26.5074V28.8817L52.4511 28.9258C56.7059 28.9692 56.7824 28.9755 57.2667 29.3211C57.8464 29.7348 58.3536 30.6539 58.3536 31.2906C58.3536 31.5391 58.2182 32.086 58.0528 32.5059C57.8874 32.9258 57.752 33.4656 57.752 33.7054C57.752 34.6276 58.3285 35.5183 59.1807 35.913C59.78 36.1906 60.9776 36.0873 61.4759 35.715Z" fill="white" stroke="#4E5154" stroke-width="2.2" mask="url(#path-1-inside-1_8_1820)"/>
</g>
</svg>
